<?xml version="1.0" encoding="UTF-8"?>
<svg version="1.1" xmlns="http://www.w3.org/2000/svg" width="1280" height="853">
<path d="M0 0 C1.3133432 -0.00525696 2.6266864 -0.01051392 3.97982788 -0.01593018 C7.55838327 -0.02952338 11.13667712 -0.02433855 14.71523666 -0.01479292 C18.47463392 -0.00715456 22.23400999 -0.01425346 25.9934082 -0.01895142 C32.30456529 -0.02439688 38.61561678 -0.01724924 44.92675781 -0.00292969 C52.20511368 0.01339455 59.48321736 0.00810518 66.76156712 -0.0084089 C73.03022438 -0.02205838 79.29880608 -0.02392658 85.56747341 -0.0160929 C89.30288763 -0.01143533 93.03818364 -0.01073835 96.77359009 -0.02070236 C100.94035582 -0.03104226 105.10669232 -0.01667836 109.2734375 0 C110.49864105 -0.00607269 111.7238446 -0.01214539 112.98617554 -0.0184021 C123.4797692 0.05921529 131.93345941 1.94494989 139.63671875 9.38818359 C150.11422811 21.76207474 149.78856586 37.17108025 149.78198242 52.5949707 C149.78702034 54.32656433 149.78702034 54.32656433 149.79216003 56.09313965 C149.80157565 59.86728013 149.80360764 63.64137589 149.8046875 67.41552734 C149.807904 70.05440794 149.81126837 72.69328835 149.81477356 75.33216858 C149.82113669 80.84180999 149.82265892 86.3514394 149.82202148 91.86108398 C149.82141838 98.22215097 149.83202754 104.58313381 149.84776515 110.94417948 C149.86241711 117.08659457 149.86600974 123.22896917 149.86541176 129.37140083 C149.86659232 131.97693796 149.87101833 134.5824757 149.87874413 137.18800163 C149.88851806 140.82112594 149.88567733 144.45403052 149.87963867 148.0871582 C149.88525818 149.16306717 149.89087769 150.23897614 149.89666748 151.3474884 C149.89037575 152.83371201 149.89037575 152.83371201 149.88395691 154.34996033 C149.88450168 155.20731246 149.88504644 156.06466459 149.88560772 156.94799709 C149.4822573 160.90257271 148.50323538 163.61313261 145.52734375 166.27490234 C144.6559375 166.86916016 143.78453125 167.46341797 142.88671875 168.07568359 C141.901875 168.76275391 140.91703125 169.44982422 139.90234375 170.15771484 C138.8246875 170.89376953 137.74703125 171.62982422 136.63671875 172.38818359 C128.65704874 177.88503628 121.14559427 183.45305647 114.07421875 190.10302734 C112.02023445 192.02863762 109.92538225 193.83963831 107.76171875 195.63818359 C92.19647435 209.22992053 80.02190108 226.29612249 68.63671875 243.38818359 C68.1989209 244.04093262 67.76112305 244.69368164 67.31005859 245.36621094 C59.39886316 257.19929577 52.28432088 269.46657415 45.15087891 281.77880859 C27.68136678 311.88428192 7.01534002 343.6053943 -28.26953125 353.91943359 C-36.84434041 355.83916699 -36.84434041 355.83916699 -40.36328125 355.38818359 C-43.24137179 352.37624859 -43.72784753 350.28998357 -43.65625 346.18505859 C-43.64658203 345.20537109 -43.63691406 344.22568359 -43.62695312 343.21630859 C-43.60181641 342.20052734 -43.57667969 341.18474609 -43.55078125 340.13818359 C-43.53724609 339.10693359 -43.52371094 338.07568359 -43.50976562 337.01318359 C-43.47445732 334.47098567 -43.42514161 331.92985136 -43.36328125 329.38818359 C-43.91489835 329.39094897 -44.46651545 329.39371435 -45.03484821 329.39656353 C-58.49948307 329.46301478 -71.96408893 329.5123649 -85.42885303 329.54362011 C-91.94050541 329.5592454 -98.45203901 329.5804265 -104.96362305 329.61450195 C-111.25302478 329.64720704 -117.54231259 329.66506019 -123.83179283 329.67281532 C-126.22584513 329.67833882 -128.61989151 329.68912469 -131.01389503 329.70537376 C-134.3789457 329.72729592 -137.74353148 329.73014431 -141.10864258 329.72875977 C-142.57816628 329.74493851 -142.57816628 329.74493851 -144.07737732 329.76144409 C-152.63943865 329.72356869 -161.42840659 328.39826737 -168.55078125 323.32568359 C-169.28683594 322.81908203 -170.02289063 322.31248047 -170.78125 321.79052734 C-171.56435547 321.09636719 -171.56435547 321.09636719 -172.36328125 320.38818359 C-172.36328125 319.72818359 -172.36328125 319.06818359 -172.36328125 318.38818359 C-173.02328125 318.38818359 -173.68328125 318.38818359 -174.36328125 318.38818359 C-175.80078125 316.63037109 -175.80078125 316.63037109 -177.36328125 314.26318359 C-177.87890625 313.49748047 -178.39453125 312.73177734 -178.92578125 311.94287109 C-182.80478193 305.04921228 -182.65413679 298.62474327 -182.63793945 290.90039062 C-182.64305038 289.64440063 -182.64816132 288.38841064 -182.65342712 287.09436035 C-182.66677973 283.66037392 -182.66739992 280.2264978 -182.66486382 276.79249048 C-182.66379143 273.91989509 -182.6686844 271.04732178 -182.67346925 268.17473114 C-182.68455179 261.39413978 -182.68500909 254.61360383 -182.67895508 247.83300781 C-182.67291749 240.85178553 -182.68522361 233.87076491 -182.70652515 226.88957703 C-182.72417372 220.88342291 -182.73013733 214.87733279 -182.7268874 208.87115371 C-182.72507937 205.28941414 -182.72766241 201.7078184 -182.74160194 198.12610245 C-182.75657743 194.12885822 -182.74718181 190.13202113 -182.7355957 186.13476562 C-182.74323944 184.95735809 -182.75088318 183.77995056 -182.75875854 182.56686401 C-182.69163136 172.07651842 -180.16297415 164.69310732 -172.98828125 156.76318359 C-164.26720466 148.87268572 -155.15098242 146.93151966 -143.66870117 146.98754883 C-142.14237061 146.97708023 -142.14237061 146.97708023 -140.58520508 146.96640015 C-137.25463363 146.94656232 -133.924375 146.94692411 -130.59375 146.94677734 C-128.26588616 146.93499545 -125.93802984 146.92162924 -123.61018372 146.90675354 C-117.50481737 146.87068153 -111.39951784 146.85039625 -105.29406738 146.83520508 C-95.50508086 146.81030565 -85.71624178 146.77074066 -75.92739296 146.71330452 C-72.51228497 146.69698538 -69.09731684 146.69319957 -65.68217468 146.69029236 C-63.59174354 146.68051773 -61.50131461 146.67025473 -59.41088867 146.65942383 C-57.9886776 146.66325325 -57.9886776 146.66325325 -56.53773499 146.66716003 C-50.15810954 146.72391756 -50.15810954 146.72391756 -44.36328125 144.38818359 C-39.55175363 139.22177442 -39.81134107 134.2882437 -39.89672852 127.61621094 C-39.8944223 126.54221039 -39.89211609 125.46820984 -39.88973999 124.36166382 C-39.88711377 122.03398376 -39.89353962 119.70627972 -39.90799141 117.37864304 C-39.92991105 113.68646532 -39.92614838 109.99510558 -39.91551208 106.30288696 C-39.89385902 97.12898081 -39.91113731 87.95525605 -39.93701172 78.78137207 C-39.95847539 71.03322476 -39.96026495 63.28560304 -39.93409538 55.53746414 C-39.9297658 51.9146361 -39.95432693 48.29273695 -39.97962952 44.67001343 C-39.98978499 30.7505066 -39.65505509 20.43155798 -30.36328125 9.38818359 C-28.5390625 7.69287109 -28.5390625 7.69287109 -26.67578125 6.26318359 C-26.07378906 5.78623047 -25.47179687 5.30927734 -24.8515625 4.81787109 C-16.86290635 0.2278426 -9.04951034 -0.04485369 0 0 Z " fill="#377DDF" transform="translate(574.36328125,169.61181640625)"/>
<path d="M0 0 C0.74006287 -0.01053406 1.48012573 -0.02106812 2.24261475 -0.03192139 C15.48326771 -0.17760857 24.53597519 1.80759092 34.36328125 11.1875 C39.61865653 16.87521877 41.61345375 22.33245043 41.64717102 30.00761414 C41.65790398 31.68759743 41.65790398 31.68759743 41.66885376 33.40151978 C41.67154266 34.62599823 41.67423157 35.85047668 41.67700195 37.11206055 C41.68357315 38.40516647 41.69014435 39.6982724 41.69691467 41.03056335 C41.71791413 45.31593596 41.72831419 49.60130874 41.73828125 53.88671875 C41.74233054 55.36496308 41.74644752 56.84320723 41.75063133 58.32145119 C41.7696751 65.26849355 41.78390703 72.21552534 41.7922433 79.16258878 C41.8020087 87.16732529 41.82831317 95.17178478 41.86874419 103.17642373 C41.89896166 109.37277443 41.91371755 115.56904597 41.91702431 121.7654689 C41.91936866 125.46191677 41.92824801 129.15806841 41.95348549 132.85443687 C41.98122209 136.98345582 41.97691795 141.11186044 41.9699707 145.2409668 C41.98918579 147.06250275 41.98918579 147.06250275 42.00878906 148.9208374 C41.94868476 158.73727859 39.32944309 167.21642515 32.5 174.5 C23.40492403 182.30890361 12.89887998 183.96887575 1.24536133 183.84057617 C0.18061584 183.84101425 -0.88412964 183.84145233 -1.98114014 183.84190369 C-5.46027711 183.83983284 -8.93891716 183.81658249 -12.41796875 183.79296875 C-14.8460514 183.78736674 -17.27413746 183.7830995 -19.70222473 183.78010559 C-26.06276979 183.76870454 -32.42310617 183.73927828 -38.78356934 183.70599365 C-45.28602273 183.67519031 -51.78851015 183.66157838 -58.29101562 183.64648438 C-71.02743228 183.61440393 -83.76370499 183.56384987 -96.5 183.5 C-96.49000725 185.3359095 -96.49000725 185.3359095 -96.47981262 187.20890808 C-96.41879583 198.78643631 -96.37392898 210.36393159 -96.34456348 221.94158459 C-96.32895851 227.89268422 -96.30781518 233.84365324 -96.27368164 239.79467773 C-96.24090324 245.5459298 -96.22310819 251.29705683 -96.21536827 257.04839516 C-96.20985779 259.23425576 -96.19909784 261.42011011 -96.18280983 263.60591698 C-95.95352782 295.67243446 -95.95352782 295.67243446 -106.40234375 307.6875 C-114.47827627 315.63199781 -124.10247183 317.93221983 -135.19538879 318.03100586 C-136.36148178 318.02133789 -137.52757477 318.01166992 -138.72900391 318.00170898 C-139.99241104 318.00711197 -141.25581818 318.01251495 -142.55751038 318.01808167 C-145.9852273 318.03190139 -149.41243471 318.0209644 -152.8401227 318.00437045 C-156.44821733 317.99039247 -160.05628616 317.99699416 -163.66439819 318.00050354 C-169.71807956 318.003195 -175.77156144 317.98981994 -181.82519531 317.96655273 C-188.80084369 317.93992554 -195.77615936 317.93820749 -202.75184119 317.9499411 C-209.49548594 317.96075822 -216.23901161 317.95450262 -222.98264694 317.94038582 C-225.83806587 317.93466243 -228.6933966 317.93467963 -231.54881668 317.93945122 C-235.54265382 317.94515484 -239.5360032 317.92580865 -243.52978516 317.90405273 C-244.69992661 317.90855438 -245.87006805 317.91305603 -247.07566833 317.91769409 C-257.93284927 317.81981441 -267.09668108 315.63155226 -275.5 308.5 C-284.87041425 298.61810026 -285.65635479 287.44054719 -285.6328125 274.390625 C-285.63376923 273.22746765 -285.63472595 272.0643103 -285.63571167 270.86590576 C-285.63639061 268.41499782 -285.63455627 265.96408806 -285.63037109 263.51318359 C-285.62499948 259.74963385 -285.6303357 255.98620239 -285.63671875 252.22265625 C-285.6360583 249.84114557 -285.63477782 247.45963496 -285.6328125 245.078125 C-285.63483673 243.94795959 -285.63686096 242.81779419 -285.63894653 241.65338135 C-285.63579437 240.61179871 -285.63264221 239.57021606 -285.62939453 238.49707031 C-285.62859894 237.57806946 -285.62780334 236.6590686 -285.62698364 235.71221924 C-285.5 233.5 -285.5 233.5 -284.5 231.5 C-282.48486328 230.94091797 -282.48486328 230.94091797 -279.8203125 230.4921875 C-278.83796631 230.31461914 -277.85562012 230.13705078 -276.84350586 229.95410156 C-275.78139893 229.76299805 -274.71929199 229.57189453 -273.625 229.375 C-238.99585671 222.61533361 -211.09396639 202.0476709 -191.48828125 173.12109375 C-186.66177555 165.78637468 -182.42095378 158.11481528 -178.15087891 150.44824219 C-170.00449151 135.8999171 -161.71878098 121.41208862 -152.70361328 107.38183594 C-151.42318885 105.37990663 -150.16240858 103.36636095 -148.90234375 101.3515625 C-139.96783412 87.16908129 -130.1127095 73.87346793 -118.546875 61.72265625 C-116.47275496 59.67628895 -116.47275496 59.67628895 -115.5 57.5 C-114.84 57.5 -114.18 57.5 -113.5 57.5 C-113.12875 56.64148438 -113.12875 56.64148438 -112.75 55.765625 C-108.84080331 48.680206 -101.30614256 43.34858401 -95.015625 38.45703125 C-93.38235239 37.18642631 -91.76637169 35.89315645 -90.171875 34.57421875 C-73.84716578 21.08741428 -55.65754667 10.9945584 -35.5 4.5 C-34.55640625 4.18240723 -34.55640625 4.18240723 -33.59375 3.85839844 C-22.6072312 0.30691618 -11.44514051 0.08381704 0 0 Z " fill="#4AAF57" transform="translate(820.5,315.5)"/>
<path d="M0 0 C2.25588359 -0.00439505 4.50983839 -0.04090255 6.76538086 -0.07861328 C19.44393487 -0.17984431 27.73808722 2.16402064 37.05639648 11.05810547 C42.31177176 16.74582424 44.30656899 22.20305589 44.34028625 29.8782196 C44.35101921 31.5582029 44.35101921 31.5582029 44.36196899 33.27212524 C44.3646579 34.4966037 44.3673468 35.72108215 44.37011719 36.98266602 C44.37668839 38.27577194 44.38325958 39.56887787 44.39002991 40.90116882 C44.41102936 45.18654142 44.42142942 49.47191421 44.43139648 53.75732422 C44.43544578 55.23556855 44.43956275 56.7138127 44.44374657 58.19205666 C44.46279034 65.13909902 44.47702226 72.08613081 44.48535854 79.03319424 C44.49512393 87.03793076 44.5214284 95.04239025 44.56185943 103.0470292 C44.59207689 109.2433799 44.60683278 115.43965144 44.61013955 121.63607436 C44.61248389 125.33252223 44.62136324 129.02867388 44.64660072 132.72504234 C44.67433732 136.85406129 44.67003318 140.98246591 44.66308594 145.11157227 C44.68230103 146.93310822 44.68230103 146.93310822 44.7019043 148.79144287 C44.64179999 158.60788406 42.02255832 167.08703062 35.19311523 174.37060547 C26.09803926 182.17950908 15.59199521 183.83948122 3.93847656 183.71118164 C2.87373108 183.71161972 1.8089856 183.7120578 0.7119751 183.71250916 C-2.76716187 183.71043831 -6.24580193 183.68718796 -9.72485352 183.66357422 C-12.15293617 183.65797221 -14.58102223 183.65370497 -17.0091095 183.65071106 C-23.36965456 183.63931 -29.72999094 183.60988375 -36.0904541 183.57659912 C-43.73811786 183.5403707 -51.38585178 183.52671453 -59.03357697 183.5092392 C-70.62482427 183.48024358 -82.21561456 183.42272275 -93.80688477 183.37060547 C-93.80688477 215.71060547 -93.80688477 248.05060547 -93.80688477 281.37060547 C-94.46688477 281.37060547 -95.12688477 281.37060547 -95.80688477 281.37060547 C-95.80688477 248.37060547 -95.80688477 215.37060547 -95.80688477 181.37060547 C-83.76639648 181.29712891 -83.76639648 181.29712891 -71.48266602 181.22216797 C-66.4012731 181.18678785 -61.31989741 181.15083136 -56.23852539 181.11279297 C-48.17092311 181.05245518 -40.10334727 180.99397463 -32.03564453 180.94873047 C-25.53223705 180.91224866 -19.02894996 180.86553335 -12.52565575 180.81254196 C-10.04295339 180.79399136 -7.56022285 180.77888588 -5.07747841 180.76726151 C-1.60343555 180.75041078 1.87030583 180.7213778 5.34423828 180.68945312 C6.37354462 180.68729294 7.40285095 180.68513275 8.46334839 180.6829071 C9.41260696 180.67174362 10.36186554 180.66058014 11.33988953 180.64907837 C12.16120708 180.64354761 12.98252462 180.63801685 13.82873058 180.6323185 C16.5503018 180.33106859 18.67608227 179.42136926 21.19311523 178.37060547 C24.00561523 178.24560547 24.00561523 178.24560547 26.19311523 178.37060547 C26.19311523 177.71060547 26.19311523 177.05060547 26.19311523 176.37060547 C27.18311523 176.37060547 28.17311523 176.37060547 29.19311523 176.37060547 C29.19311523 175.71060547 29.19311523 175.05060547 29.19311523 174.37060547 C30.51311523 174.04060547 31.83311523 173.71060547 33.19311523 173.37060547 C33.19311523 172.71060547 33.19311523 172.05060547 33.19311523 171.37060547 C33.85311523 171.37060547 34.51311523 171.37060547 35.19311523 171.37060547 C35.53342773 170.41154297 35.53342773 170.41154297 35.88061523 169.43310547 C37.19311523 166.37060547 37.19311523 166.37060547 38.39185619 164.56147099 C42.71416579 157.90501979 42.90887613 152.11270216 42.85253906 144.32348633 C42.86302277 143.04445435 42.87350647 141.76542236 42.88430786 140.44763184 C42.91228554 136.96669036 42.91001305 133.48636862 42.90201402 130.00534892 C42.89887471 126.35776872 42.92396471 122.71038104 42.94596863 119.06288147 C42.98332256 112.16765704 42.99555146 105.2726298 42.99859303 98.37731415 C43.0032933 90.52226319 43.03624753 82.66740861 43.07149088 74.81244457 C43.14331123 58.66517653 43.17992383 42.51803016 43.19311523 26.37060547 C42.53311523 26.37060547 41.87311523 26.37060547 41.19311523 26.37060547 C39.63061523 25.37060547 39.63061523 25.37060547 38.19311523 23.37060547 C37.63305851 20.69184357 37.41757371 18.10899886 37.19311523 15.37060547 C36.55374023 15.24685547 35.91436523 15.12310547 35.25561523 14.99560547 C34.57499023 14.78935547 33.89436523 14.58310547 33.19311523 14.37060547 C32.86311523 13.71060547 32.53311523 13.05060547 32.19311523 12.37060547 C31.20311523 13.03060547 30.21311523 13.69060547 29.19311523 14.37060547 C29.19311523 12.72060547 29.19311523 11.07060547 29.19311523 9.37060547 C28.20311523 9.04060547 27.21311523 8.71060547 26.19311523 8.37060547 C26.19311523 7.38060547 26.19311523 6.39060547 26.19311523 5.37060547 C24.87311523 5.70060547 23.55311523 6.03060547 22.19311523 6.37060547 C21.69811523 5.38060547 21.69811523 5.38060547 21.19311523 4.37060547 C-10.00777549 3.86461564 -10.00777549 3.86461564 -40.80688477 8.37060547 C-38.29817201 5.86189272 -36.25838295 5.4022149 -32.86938477 4.37060547 C-31.80848633 4.04060547 -30.74758789 3.71060547 -29.65454102 3.37060547 C-19.7402951 0.79390805 -10.20982103 -0.00222315 0 0 Z " fill="#A6D8AC" transform="translate(817.806884765625,315.62939453125)"/>
<path d="M0 0 C1.3133432 -0.00525696 2.6266864 -0.01051392 3.97982788 -0.01593018 C7.55838327 -0.02952338 11.13667712 -0.02433855 14.71523666 -0.01479292 C18.47463392 -0.00715456 22.23400999 -0.01425346 25.9934082 -0.01895142 C32.30456529 -0.02439688 38.61561678 -0.01724924 44.92675781 -0.00292969 C52.20511368 0.01339455 59.48321736 0.00810518 66.76156712 -0.0084089 C73.03022438 -0.02205838 79.29880608 -0.02392658 85.56747341 -0.0160929 C89.30288763 -0.01143533 93.03818364 -0.01073835 96.77359009 -0.02070236 C100.94035582 -0.03104226 105.10669232 -0.01667836 109.2734375 0 C110.49864105 -0.00607269 111.7238446 -0.01214539 112.98617554 -0.0184021 C119.85764971 0.03242376 125.2492477 0.81607866 131.63671875 3.38818359 C131.63671875 3.71818359 131.63671875 4.04818359 131.63671875 4.38818359 C124.01171875 3.51318359 124.01171875 3.51318359 120.63671875 2.38818359 C118.85789202 2.28945556 117.07559907 2.24890184 115.29405212 2.24101257 C114.18529724 2.23385727 113.07654236 2.22670197 111.93418884 2.21932983 C110.7170369 2.21664093 109.49988495 2.21395203 108.24584961 2.21118164 C106.96424957 2.20461044 105.68264954 2.19803925 104.36221313 2.19126892 C100.10867563 2.17023984 95.85513783 2.15986409 91.6015625 2.14990234 C90.13479659 2.14585364 88.66803087 2.14173668 87.20126534 2.13755226 C80.3060093 2.11849905 73.41076395 2.1042712 66.51548666 2.09594029 C58.57130948 2.08618255 50.62741203 2.05990215 42.68333334 2.0194394 C36.53454515 1.98920264 30.38583677 1.97446408 24.23697573 1.97115928 C20.56898461 1.96881637 16.90129224 1.95995663 13.23338127 1.9346981 C9.13319423 1.90692009 5.033625 1.91127149 0.93334961 1.91821289 C-0.87112389 1.8989978 -0.87112389 1.8989978 -2.71205139 1.87939453 C-11.02999364 1.93057627 -18.36545236 3.07291086 -24.92578125 8.51318359 C-26.41393009 10.3317428 -26.41393009 10.3317428 -27.36328125 12.38818359 C-28.02328125 12.38818359 -28.68328125 12.38818359 -29.36328125 12.38818359 C-29.36328125 13.04818359 -29.36328125 13.70818359 -29.36328125 14.38818359 C-30.02328125 14.38818359 -30.68328125 14.38818359 -31.36328125 14.38818359 C-31.36328125 15.04818359 -31.36328125 15.70818359 -31.36328125 16.38818359 C-32.02328125 16.38818359 -32.68328125 16.38818359 -33.36328125 16.38818359 C-36.22043324 29.11830604 -36.79269731 41.42687257 -36.77397156 54.44777489 C-36.76942981 57.88287258 -36.78366543 61.31747231 -36.80236816 64.7525177 C-36.84501727 73.26601765 -36.85643024 81.77950267 -36.86859131 90.29309082 C-36.88012209 97.52942572 -36.90364829 104.76552709 -36.94328308 112.0017643 C-36.95682535 115.37979138 -36.95269121 118.7575004 -36.94787598 122.13554382 C-36.95721356 124.20307828 -36.96738161 126.27060921 -36.97851562 128.33813477 C-36.96929329 129.73845695 -36.96929329 129.73845695 -36.95988464 131.16706848 C-37.00815421 136.27001175 -37.25272957 140.12600845 -40.36328125 144.38818359 C-46.12934973 148.88592399 -51.20914269 148.96953754 -58.34741211 148.93408203 C-59.43108063 148.94441971 -60.51474915 148.95475739 -61.6312561 148.96540833 C-65.19703141 148.99479957 -68.76223816 148.99633478 -72.328125 148.99755859 C-74.80677877 149.01254264 -77.28542256 149.02927025 -79.76405334 149.04766846 C-86.27581241 149.09132849 -92.78743677 149.11133833 -99.29931641 149.12640381 C-105.94897457 149.14384132 -112.59849393 149.18794917 -119.24804688 149.22802734 C-132.28640905 149.30331508 -145.3247489 149.35437631 -158.36328125 149.38818359 C-158.36328125 150.04818359 -158.36328125 150.70818359 -158.36328125 151.38818359 C-159.03875 151.65373047 -159.71421875 151.91927734 -160.41015625 152.19287109 C-161.74820312 152.72267578 -161.74820312 152.72267578 -163.11328125 153.26318359 C-163.995 153.61123047 -164.87671875 153.95927734 -165.78515625 154.31787109 C-171.32342152 156.52668116 -171.32342152 156.52668116 -174.36328125 161.38818359 C-174.83765625 162.13068359 -175.31203125 162.87318359 -175.80078125 163.63818359 C-180.25215052 171.4725935 -180.79485808 177.93728529 -180.7355957 186.81176758 C-180.73924637 188.03718262 -180.74289703 189.26259766 -180.74665833 190.52514648 C-180.75334836 193.86628564 -180.7466893 197.20686222 -180.7333262 200.54794574 C-180.72194768 204.05776645 -180.7261242 207.56757396 -180.72807312 211.07740784 C-180.7289542 216.97084338 -180.71791577 222.86416349 -180.69946289 228.75756836 C-180.67830794 235.55246518 -180.67478444 242.34719292 -180.68102485 249.14211601 C-180.6867381 255.70099375 -180.68104918 262.25981249 -180.6698513 268.81868172 C-180.66523021 271.59955001 -180.66432061 274.38038191 -180.66643715 277.16125298 C-180.66868675 281.05263334 -180.65414622 284.94385588 -180.63793945 288.83520508 C-180.64041687 289.97782303 -180.64289429 291.12044098 -180.64544678 292.29768372 C-180.60343551 298.6390255 -179.98638321 304.2523184 -178.36328125 310.38818359 C-180.36328125 309.38818359 -180.36328125 309.38818359 -181.47111511 307.10617065 C-182.76871619 301.69858587 -182.64956191 296.44302794 -182.63793945 290.90039062 C-182.64305038 289.64440063 -182.64816132 288.38841064 -182.65342712 287.09436035 C-182.66677973 283.66037392 -182.66739992 280.2264978 -182.66486382 276.79249048 C-182.66379143 273.91989509 -182.6686844 271.04732178 -182.67346925 268.17473114 C-182.68455179 261.39413978 -182.68500909 254.61360383 -182.67895508 247.83300781 C-182.67291749 240.85178553 -182.68522361 233.87076491 -182.70652515 226.88957703 C-182.72417372 220.88342291 -182.73013733 214.87733279 -182.7268874 208.87115371 C-182.72507937 205.28941414 -182.72766241 201.7078184 -182.74160194 198.12610245 C-182.75657743 194.12885822 -182.74718181 190.13202113 -182.7355957 186.13476562 C-182.74323944 184.95735809 -182.75088318 183.77995056 -182.75875854 182.56686401 C-182.69163136 172.07651842 -180.16297415 164.69310732 -172.98828125 156.76318359 C-164.26720466 148.87268572 -155.15098242 146.93151966 -143.66870117 146.98754883 C-142.14237061 146.97708023 -142.14237061 146.97708023 -140.58520508 146.96640015 C-137.25463363 146.94656232 -133.924375 146.94692411 -130.59375 146.94677734 C-128.26588616 146.93499545 -125.93802984 146.92162924 -123.61018372 146.90675354 C-117.50481737 146.87068153 -111.39951784 146.85039625 -105.29406738 146.83520508 C-95.50508086 146.81030565 -85.71624178 146.77074066 -75.92739296 146.71330452 C-72.51228497 146.69698538 -69.09731684 146.69319957 -65.68217468 146.69029236 C-63.59174354 146.68051773 -61.50131461 146.67025473 -59.41088867 146.65942383 C-57.9886776 146.66325325 -57.9886776 146.66325325 -56.53773499 146.66716003 C-50.15810954 146.72391756 -50.15810954 146.72391756 -44.36328125 144.38818359 C-39.55175363 139.22177442 -39.81134107 134.2882437 -39.89672852 127.61621094 C-39.8944223 126.54221039 -39.89211609 125.46820984 -39.88973999 124.36166382 C-39.88711377 122.03398376 -39.89353962 119.70627972 -39.90799141 117.37864304 C-39.92991105 113.68646532 -39.92614838 109.99510558 -39.91551208 106.30288696 C-39.89385902 97.12898081 -39.91113731 87.95525605 -39.93701172 78.78137207 C-39.95847539 71.03322476 -39.96026495 63.28560304 -39.93409538 55.53746414 C-39.9297658 51.9146361 -39.95432693 48.29273695 -39.97962952 44.67001343 C-39.98978499 30.7505066 -39.65505509 20.43155798 -30.36328125 9.38818359 C-28.5390625 7.69287109 -28.5390625 7.69287109 -26.67578125 6.26318359 C-26.07378906 5.78623047 -25.47179687 5.30927734 -24.8515625 4.81787109 C-16.86290635 0.2278426 -9.04951034 -0.04485369 0 0 Z " fill="#CFE7F4" transform="translate(574.36328125,169.61181640625)"/>
<path d="M0 0 C0 0.66 0 1.32 0 2 C-9.57802979 5.45580928 -19.7285851 9 -30 9 C-29.67 28.8 -29.34 48.6 -29 69 C-28.01 69.33 -27.02 69.66 -26 70 C-25.979375 71.19625 -25.95875 72.3925 -25.9375 73.625 C-25.50323815 77.45193256 -24.4060537 78.95706513 -21.4375 81.375 C-20.79683594 81.83648438 -20.15617188 82.29796875 -19.49609375 82.7734375 C-19.00238281 83.17820312 -18.50867188 83.58296875 -18 84 C-18 84.66 -18 85.32 -18 86 C-9.45828133 88.54347582 -1.65956906 89.43057904 7.22900391 89.37231445 C9.12411461 89.37779045 9.12411461 89.37779045 11.05751038 89.38337708 C14.48515234 89.39268471 17.91250367 89.38344827 21.3401227 89.37004495 C24.94821424 89.35862219 28.55629373 89.36284611 32.16439819 89.36479187 C38.2180448 89.36567123 44.27157865 89.35466794 50.32519531 89.33618164 C57.30079029 89.31500036 64.27622055 89.31151039 71.25184119 89.3177436 C77.99546498 89.32345843 84.73903142 89.31776794 91.48264694 89.30657005 C94.33804777 89.301954 97.19341317 89.3010371 100.04881668 89.3031559 C104.04255895 89.30540721 108.03607512 89.29085912 112.02978516 89.2746582 C113.19992661 89.27713562 114.37006805 89.27961304 115.57566833 89.28216553 C125.84338893 89.21595314 134.68930359 88.46814016 143 82 C143.79083984 81.17822266 143.79083984 81.17822266 144.59765625 80.33984375 C146 79 146 79 148 79 C148 78.34 148 77.68 148 77 C148.66 77.33 149.32 77.66 150 78 C143.33619127 86.1227491 137.37615264 90.74135203 127 93 C122.66138318 93.40654291 118.35336197 93.41072588 113.99804688 93.38818359 C112.73493179 93.39344055 111.47181671 93.39869751 110.17042542 93.40411377 C106.73441575 93.41768442 103.29867906 93.41253168 99.86266518 93.40297651 C96.24921616 93.39532626 92.63578891 93.4024403 89.02233887 93.40713501 C82.95674488 93.41257706 76.89126085 93.40544188 70.82568359 93.39111328 C63.83531808 93.37478969 56.84521517 93.38007931 49.85485601 93.3965925 C43.82904756 93.41025178 37.80331768 93.41210542 31.77749872 93.40427649 C28.18906005 93.39962427 24.60074438 93.39890694 21.01231384 93.40888596 C17.00870474 93.41924393 13.00554098 93.40484612 9.00195312 93.38818359 C7.82866959 93.39425629 6.65538605 93.40032898 5.44654846 93.40658569 C-5.42287579 93.32311271 -14.58719479 91.13960289 -23 84 C-32.37041425 74.11810026 -33.15635479 62.94054719 -33.1328125 49.890625 C-33.13376923 48.72746765 -33.13472595 47.5643103 -33.13571167 46.36590576 C-33.13639061 43.91499782 -33.13455627 41.46408806 -33.13037109 39.01318359 C-33.12499948 35.24963385 -33.1303357 31.48620239 -33.13671875 27.72265625 C-33.1360583 25.34114557 -33.13477782 22.95963496 -33.1328125 20.578125 C-33.13483673 19.44795959 -33.13686096 18.31779419 -33.13894653 17.15338135 C-33.13579437 16.11179871 -33.13264221 15.07021606 -33.12939453 13.99707031 C-33.12859894 13.07806946 -33.12780334 12.1590686 -33.12698364 11.21221924 C-33 9 -33 9 -32 7 C-29.76269531 6.34570312 -29.76269531 6.34570312 -26.828125 5.78125 C-25.77109375 5.57113281 -24.7140625 5.36101563 -23.625 5.14453125 C-22.51125 4.93183594 -21.3975 4.71914063 -20.25 4.5 C-18.06687227 4.07721118 -15.88454399 3.65026856 -13.703125 3.21875 C-12.24374512 2.9393457 -12.24374512 2.9393457 -10.75488281 2.65429688 C-7.9710351 2.0656508 -7.9710351 2.0656508 -5.33105469 0.92382812 C-3 0 -3 0 0 0 Z " fill="#CFECD4" transform="translate(568,540)"/>
<path d="M0 0 C2.58753091 0.93438616 4.71583387 1.7726671 6.875 3.5 C12.9323428 7.77577139 20.11603719 7.27118643 27.21191406 7.21118164 C28.32002441 7.2098674 29.42813477 7.20855316 30.56982422 7.2071991 C34.2185126 7.20072789 37.86698883 7.18030808 41.515625 7.16015625 C44.05433932 7.15388389 46.59305639 7.14864445 49.1317749 7.14439392 C55.1239354 7.13246353 61.11600741 7.11233434 67.10812354 7.08749622 C78.48511571 7.04042529 89.86212677 7.00772052 101.23918915 6.9829998 C104.97901266 6.97275653 108.71876244 6.95571141 112.45855713 6.93800354 C114.74092543 6.93117806 117.0232944 6.92456927 119.30566406 6.91821289 C120.34986511 6.91147552 121.39406616 6.90473816 122.46990967 6.89779663 C123.4231311 6.89628098 124.37635254 6.89476532 125.35845947 6.89320374 C126.18727757 6.88968431 127.01609566 6.88616488 127.87002945 6.8825388 C130 7 130 7 133 8 C136.54535766 15.09071532 135.09841512 25.31268563 135 33 C139.455 32.505 139.455 32.505 144 32 C144 31.34 144 30.68 144 30 C144.64324219 30.020625 145.28648437 30.04125 145.94921875 30.0625 C153.90007697 29.88102535 158.88894979 27.03628248 165.25 22.6171875 C166.1575 22.08351563 167.065 21.54984375 168 21 C168.99 21.33 169.98 21.66 171 22 C161.23111936 29.40806782 146.05720586 38.06959944 133.35546875 36.71875 C131 36 131 36 129 33 C128.77294922 30.63989258 128.77294922 30.63989258 128.8046875 27.89453125 C128.81435547 26.42016602 128.81435547 26.42016602 128.82421875 24.91601562 C128.84935547 23.37977539 128.84935547 23.37977539 128.875 21.8125 C128.88402344 20.77673828 128.89304687 19.74097656 128.90234375 18.67382812 C128.9259214 16.11565315 128.9588297 13.55794252 129 11 C128.4483829 11.00276538 127.8967658 11.00553076 127.32843304 11.00837994 C113.86379818 11.07483118 100.39919232 11.1241813 86.93442822 11.15543652 C80.42277584 11.1710618 73.91124224 11.1922429 67.3996582 11.22631836 C61.11025647 11.25902344 54.82096866 11.27687659 48.53148842 11.28463173 C46.13743612 11.29015523 43.74338974 11.3009411 41.34938622 11.31719017 C37.98433555 11.33911233 34.61974977 11.34196072 31.25463867 11.34057617 C30.27495621 11.351362 29.29527374 11.36214783 28.28590393 11.3732605 C19.7238426 11.33538509 10.93487466 10.01008378 3.8125 4.9375 C3.07644531 4.43089844 2.34039062 3.92429687 1.58203125 3.40234375 C1.05996094 2.93957031 0.53789062 2.47679687 0 2 C0 1.34 0 0.68 0 0 Z " fill="#598BD7" transform="translate(402,488)"/>
<path d="M0 0 C6.00113684 2.5663609 8.91842334 7.83684669 11.75 13.5 C16.65709473 28.61929912 15.29399519 45.77486121 15.265625 61.41796875 C15.26697455 64.05113257 15.26891749 66.68429614 15.27142334 69.31745911 C15.27503568 74.80321301 15.2703305 80.28891259 15.26074219 85.7746582 C15.2498029 92.10627931 15.25343359 98.43777213 15.264395 104.76939029 C15.27456803 110.89260124 15.27348935 117.01575544 15.26763153 123.13897133 C15.26629811 125.73334077 15.26793199 128.32771349 15.27259064 130.92207909 C15.27766171 134.53562557 15.26993995 138.14892327 15.25878906 141.76245117 C15.26283752 142.83207596 15.26688599 143.90170074 15.27105713 145.0037384 C15.26259766 146.48129105 15.26259766 146.48129105 15.25396729 147.98869324 C15.25321323 148.8408501 15.25245918 149.69300695 15.25168228 150.57098675 C14.84260399 154.51904608 13.86205989 157.22893532 10.890625 159.88671875 C10.01921875 160.48097656 9.1478125 161.07523438 8.25 161.6875 C7.26515625 162.37457031 6.2803125 163.06164062 5.265625 163.76953125 C4.18796875 164.50558594 3.1103125 165.24164063 2 166 C-5.97967001 171.49685269 -13.49112448 177.06487288 -20.5625 183.71484375 C-22.6164843 185.64045403 -24.7113365 187.45145472 -26.875 189.25 C-31.51087433 193.23878354 -35.53992361 197.8242661 -39.60888672 202.37792969 C-41.03447174 203.95395761 -42.5131874 205.4815979 -44 207 C-44.66 207 -45.32 207 -46 207 C-42.2126697 198.11434046 -33.31327344 191.05131565 -26 185 C-24.74791759 183.93995477 -23.49784027 182.87753564 -22.25 181.8125 C-21.71890625 181.36519531 -21.1878125 180.91789063 -20.640625 180.45703125 C-18.92301784 178.96817069 -18.92301784 178.96817069 -17.1484375 177.08984375 C-14.70843523 174.716387 -12.12662373 172.7525294 -9.375 170.75 C-8.41335938 170.04359375 -7.45171875 169.3371875 -6.4609375 168.609375 C-4 167 -4 167 -2 167 C-2 166.34 -2 165.68 -2 165 C0.1171875 163.4921875 0.1171875 163.4921875 2.875 161.875 C3.77992188 161.33617187 4.68484375 160.79734375 5.6171875 160.2421875 C8 159 8 159 10 159 C10 158.34 10 157.68 10 157 C10.66 157 11.32 157 12 157 C12.07020651 139.70129856 12.12304505 122.40264184 12.15543652 105.10383034 C12.17087889 97.07096202 12.19191786 89.03818244 12.22631836 81.00537109 C12.25630153 74.00068041 12.2755941 66.99605402 12.28226548 59.99130094 C12.28616271 56.28530436 12.29526625 52.57949165 12.31719017 48.87355423 C12.34151607 44.72763299 12.3419643 40.58202762 12.34057617 36.43603516 C12.351362 35.21898895 12.36214783 34.00194275 12.3732605 32.74801636 C12.34744467 25.60393621 11.36754628 19.71960344 9 13 C8.65161325 11.67052057 8.31327128 10.33818907 8 9 C7.34 9 6.68 9 6 9 C4.64721885 7.01310269 3.31431695 5.01254782 2 3 C1.34 2.67 0.68 2.34 0 2 C0 1.34 0 0.68 0 0 Z " fill="#DEF1FE" transform="translate(709,176)"/>
<path d="M0 0 C-4.25087732 2.27725571 -7.80337357 3.12580257 -12.61907959 3.12025452 C-13.54172104 3.12162918 -14.46436249 3.12300385 -15.41496277 3.12442017 C-16.41981216 3.12082489 -17.42466156 3.11722961 -18.45996094 3.11352539 C-19.52368423 3.11367142 -20.58740753 3.11381744 -21.68336487 3.1139679 C-25.20038897 3.11327106 -28.71736015 3.10548933 -32.234375 3.09765625 C-34.67246471 3.09579126 -37.1105548 3.09436774 -39.54864502 3.09336853 C-45.96674636 3.08954976 -52.38482508 3.0797249 -58.80291748 3.06866455 C-66.5030114 3.05663855 -74.20311288 3.05204514 -81.9032135 3.04621124 C-93.60215807 3.03651284 -105.301053 3.01735177 -117 3 C-117 35.34 -117 67.68 -117 101 C-117.66 101 -118.32 101 -119 101 C-119 68 -119 35 -119 1 C-91.32937809 0.75043408 -91.32937809 0.75043408 -79.52929688 0.64453125 C-71.47940917 0.57228373 -63.42952203 0.49997734 -55.37963867 0.42724609 C-48.88927005 0.36861701 -42.39889874 0.31029375 -35.90852547 0.25218201 C-33.4330339 0.22996398 -30.95754332 0.20763598 -28.48205376 0.18519592 C-25.01334763 0.15377129 -21.5446382 0.12273855 -18.07592773 0.09179688 C-16.54275406 0.07777077 -16.54275406 0.07777077 -14.97860718 0.0634613 C-9.98549119 0.01933053 -4.99331048 -0.01020322 0 0 Z " fill="#DAF4E1" transform="translate(841,496)"/>
<path d="M0 0 C0.33 0 0.66 0 1 0 C1.09351941 14.23852918 1.16375025 28.47701061 1.20724869 42.71578407 C1.22812551 49.32739538 1.25644566 55.93880039 1.30175781 62.55029297 C1.34521101 68.93045455 1.36913639 75.31041766 1.37950897 81.69071579 C1.38690119 84.12519836 1.40133634 86.55967004 1.42292023 88.99406815 C1.45194615 92.40334824 1.45595619 95.81180768 1.45410156 99.22119141 C1.46848267 100.22820099 1.48286377 101.23521057 1.49768066 102.2727356 C1.46365955 108.05034267 0.91210392 111.44520514 -3 116 C-3.44126252 116.53862388 -3.88252504 117.07724775 -4.33715916 117.63219357 C-6.5590139 119.45982922 -7.90768732 119.3832848 -10.76457214 119.39872742 C-11.74473801 119.41126556 -12.72490387 119.42380371 -13.73477173 119.4367218 C-15.34562149 119.43456917 -15.34562149 119.43456917 -16.98901367 119.43237305 C-18.68679207 119.44766052 -18.68679207 119.44766052 -20.41886902 119.46325684 C-24.1686185 119.49350647 -27.91811303 119.50267127 -31.66796875 119.51171875 C-34.26443845 119.52855651 -36.86089995 119.54670552 -39.45735168 119.56611633 C-45.59836903 119.60885187 -51.73931974 119.63833905 -57.88043815 119.66143972 C-64.87198923 119.68847633 -71.86340232 119.7323887 -78.85485494 119.77772844 C-93.23649244 119.8706151 -107.61818055 119.94227737 -122 120 C-122 119.67 -122 119.34 -122 119 C-116.9778961 117.67626596 -111.9659075 117.85532284 -106.81298828 117.8581543 C-105.78962372 117.85467987 -104.76625916 117.85120544 -103.71188354 117.84762573 C-101.49277411 117.84028271 -99.2736574 117.83492959 -97.05453873 117.83133507 C-93.54043905 117.82415774 -90.02647804 117.80848221 -86.51242065 117.78999329 C-76.52213418 117.73757819 -66.531925 117.68953682 -56.54150391 117.67407227 C-50.42775292 117.66398858 -44.31435305 117.63465677 -38.20074081 117.59275246 C-35.87320486 117.58044644 -33.54561933 117.57532046 -31.21805191 117.57755089 C-27.96025371 117.57990497 -24.70346279 117.55772893 -21.44580078 117.5300293 C-20.00856659 117.53993141 -20.00856659 117.53993141 -18.54229736 117.55003357 C-12.54569284 117.4664332 -8.81353822 116.69156879 -4 113 C-1.04834109 108.59907012 -1.70016881 102.96524268 -1.69702148 97.84130859 C-1.68436249 96.31125435 -1.68436249 96.31125435 -1.67144775 94.75028992 C-1.6456841 91.38300099 -1.63353362 88.01579968 -1.62109375 84.6484375 C-1.60491932 82.30863755 -1.58773939 79.96884435 -1.56959534 77.62905884 C-1.5239128 71.47191484 -1.48910338 65.31476185 -1.45739746 59.15753174 C-1.4055151 49.29463039 -1.3404496 39.43182819 -1.26918221 29.56904984 C-1.24631662 26.11955902 -1.23006755 22.67008087 -1.21446228 19.22055054 C-1.20105818 17.11366638 -1.1874436 15.00678355 -1.17358398 12.89990234 C-1.17097061 11.93671585 -1.16835724 10.97352936 -1.16566467 9.9811554 C-1.15876617 9.10077103 -1.15186768 8.22038666 -1.14476013 7.31332397 C-1.13897776 6.16575402 -1.13897776 6.16575402 -1.13307858 4.99500084 C-1 3 -1 3 0 0 Z " fill="#4D83CC" transform="translate(538,200)"/>
<path d="M0 0 C2.5739412 0.92947877 4.71922869 1.78136574 6.88834572 3.47043896 C13.67819644 8.38861673 22.35737204 8.44380905 30.41650391 8.43237305 C32.05729416 8.44766052 32.05729416 8.44766052 33.73123169 8.46325684 C37.31306183 8.49322485 40.89462381 8.50262816 44.4765625 8.51171875 C46.97334674 8.5285774 49.47012254 8.54672923 51.96688843 8.56611633 C58.51309577 8.61349332 65.05926894 8.64338236 71.60559082 8.66955566 C78.29572571 8.69783236 84.98574308 8.74593232 91.67578125 8.79101562 C104.78380597 8.87690895 117.89181873 8.94277698 131 9 C131 17.58 131 26.16 131 35 C129 33 129 33 128.77294922 30.75341797 C128.78865967 29.38660889 128.78865967 29.38660889 128.8046875 27.9921875 C128.81435547 26.51298828 128.81435547 26.51298828 128.82421875 25.00390625 C128.84935547 23.45509766 128.84935547 23.45509766 128.875 21.875 C128.88402344 20.83472656 128.89304687 19.79445313 128.90234375 18.72265625 C128.92596253 16.14820908 128.95889851 13.57421788 129 11 C128.4483829 11.00276538 127.8967658 11.00553076 127.32843304 11.00837994 C113.86379818 11.07483118 100.39919232 11.1241813 86.93442822 11.15543652 C80.42277584 11.1710618 73.91124224 11.1922429 67.3996582 11.22631836 C61.11025647 11.25902344 54.82096866 11.27687659 48.53148842 11.28463173 C46.13743612 11.29015523 43.74338974 11.3009411 41.34938622 11.31719017 C37.98433555 11.33911233 34.61974977 11.34196072 31.25463867 11.34057617 C30.27495621 11.351362 29.29527374 11.36214783 28.28590393 11.3732605 C19.7238426 11.33538509 10.93487466 10.01008378 3.8125 4.9375 C3.07644531 4.43089844 2.34039062 3.92429687 1.58203125 3.40234375 C1.05996094 2.93957031 0.53789062 2.47679687 0 2 C0 1.34 0 0.68 0 0 Z " fill="#CBE0F4" transform="translate(402,488)"/>
<path d="M0 0 C0.66 0 1.32 0 2 0 C0.63131191 2.92846986 -0.95006509 5.41426791 -2.90625 7.984375 C-3.48036621 8.74669434 -4.05448242 9.50901367 -4.64599609 10.29443359 C-5.25781738 11.10477051 -5.86963867 11.91510742 -6.5 12.75 C-12.40936091 20.67105824 -17.82681956 28.75412486 -22.92236328 37.21679688 C-24.52550712 39.86957499 -26.17342988 42.4943095 -27.8125 45.125 C-31.47427431 51.07910457 -35.01688982 57.10117274 -38.5625 63.125 C-45.25100772 74.47171133 -52.12412545 85.4238256 -60 96 C-60.33 95.01 -60.66 94.02 -61 93 C-59.6859849 91.31806068 -58.34592097 89.65651812 -57 88 C-54.90382692 84.38397393 -52.94384682 80.69978844 -51 77 C-50.34 77 -49.68 77 -49 77 C-48.82791016 76.15115234 -48.82791016 76.15115234 -48.65234375 75.28515625 C-47.9269873 72.74423695 -46.87029081 70.73098478 -45.5625 68.4375 C-45.13066406 67.67308594 -44.69882812 66.90867187 -44.25390625 66.12109375 C-43.22469183 64.38008618 -42.12186516 62.68279774 -41 61 C-40.34 61 -39.68 61 -39 61 C-38.88785156 60.27425781 -38.77570312 59.54851562 -38.66015625 58.80078125 C-37.97038613 55.87436007 -36.94489186 53.77712191 -35.4375 51.1875 C-34.98246094 50.39730469 -34.52742187 49.60710937 -34.05859375 48.79296875 C-33.70925781 48.20128906 -33.35992188 47.60960937 -33 47 C-32.34 47 -31.68 47 -31 47 C-30.87625 46.195625 -30.7525 45.39125 -30.625 44.5625 C-30.315625 43.2940625 -30.315625 43.2940625 -30 42 C-29.01 41.505 -29.01 41.505 -28 41 C-27.31526605 38.67190457 -26.65146849 36.33762223 -26 34 C-24.55947451 30.81883953 -23.46743518 28.46743518 -21 26 C-20.3574765 23.93125966 -20.3574765 23.93125966 -20 22 C-19.01 22 -18.02 22 -17 22 C-16.9071875 21.1028125 -16.9071875 21.1028125 -16.8125 20.1875 C-15.67717105 17.13084514 -13.78847225 16.53365974 -11 15 C-10.67 14.34 -10.34 13.68 -10 13 C-9.34 13 -8.68 13 -8 13 C-7.71125 12.236875 -7.4225 11.47375 -7.125 10.6875 C-6 8 -6 8 -4 5 C-3.34 5 -2.68 5 -2 5 C-1.34 3.35 -0.68 1.7 0 0 Z " fill="#B6D5F4" transform="translate(660,385)"/>
<path d="M0 0 C0.33 0 0.66 0 1 0 C1 43.89 1 87.78 1 133 C0.34 133 -0.32 133 -1 133 C-1 133.66 -1 134.32 -1 135 C-3.1171875 136.5078125 -3.1171875 136.5078125 -5.875 138.125 C-6.77992188 138.66382813 -7.68484375 139.20265625 -8.6171875 139.7578125 C-11 141 -11 141 -13 141 C-13 141.66 -13 142.32 -13 143 C-15.475 143.99 -15.475 143.99 -18 145 C-17.44299928 141.76939581 -16.70784878 139.9341777 -14 138 C-11.3125 137.8125 -11.3125 137.8125 -9 138 C-9 137.34 -9 136.68 -9 136 C-8.01 136 -7.02 136 -6 136 C-6 135.34 -6 134.68 -6 134 C-5.34733154 133.64583008 -4.69466309 133.29166016 -4.0222168 132.92675781 C-1.58006677 131.01280333 -1.58006677 131.01280333 -1.56176758 127.11230469 C-1.56910711 125.46528008 -1.5982922 123.81826677 -1.64453125 122.171875 C-1.65297058 121.28479858 -1.66140991 120.39772217 -1.67010498 119.48376465 C-1.69007073 117.57211655 -1.71891569 115.660545 -1.75564575 113.74914551 C-1.85179879 108.67693086 -1.88150077 103.60415961 -1.921875 98.53125 C-1.9317897 97.5219342 -1.94170441 96.51261841 -1.95191956 95.47271729 C-2.02111786 87.71790238 -1.87862865 79.99958873 -1.5625 72.25 C-0.95950559 56.8584043 -0.70081215 41.46319644 -0.4375 26.0625 C-0.41535431 24.77404175 -0.39320862 23.4855835 -0.37039185 22.15808105 C-0.24392769 14.77210269 -0.12032205 7.38608094 0 0 Z " fill="#3875CA" transform="translate(720,200)"/>
<path d="M0 0 C0.556875 0.2475 1.11375 0.495 1.6875 0.75 C-0.70759338 3.64932357 -2.62495243 4.25168276 -6.3125 4.75 C-6.395 5.471875 -6.4775 6.19375 -6.5625 6.9375 C-7.3125 9.75 -7.3125 9.75 -9.3125 12.1875 C-11.59402851 15.1107084 -11.97351098 17.10586806 -12.3125 20.75 C-12.9725 20.75 -13.6325 20.75 -14.3125 20.75 C-14.38266945 37.04017236 -14.43552696 53.33029548 -14.46793652 69.62058258 C-14.48338672 77.18493206 -14.50444076 84.74918747 -14.53881836 92.31347656 C-14.56877745 98.90869827 -14.58808842 105.50385183 -14.59476548 112.09913969 C-14.59866677 115.58933673 -14.6077964 119.07933887 -14.62969017 122.56947327 C-14.65396772 126.47148209 -14.65446582 130.37330252 -14.65307617 134.27539062 C-14.663862 135.42482147 -14.67464783 136.57425232 -14.6857605 137.7585144 C-14.66126163 144.12193814 -14.12304422 148.99675573 -11.3125 154.75 C-10.6525 155.08 -9.9925 155.41 -9.3125 155.75 C-9.3125 156.74 -9.3125 157.73 -9.3125 158.75 C-8.6525 158.75 -7.9925 158.75 -7.3125 158.75 C-5.3125 161.75 -5.3125 161.75 -5.3125 164.75 C-3.9925 164.75 -2.6725 164.75 -1.3125 164.75 C-0.6525 166.07 0.0075 167.39 0.6875 168.75 C-0.116875 168.316875 -0.116875 168.316875 -0.9375 167.875 C-3.35335753 166.63559892 -3.35335753 166.63559892 -6.3125 166 C-10.38802909 164.30186288 -11.31171755 162.6825724 -13.3125 158.75 C-16.12354313 150.82648205 -16.75410198 143.38665759 -16.73242188 135.03344727 C-16.74089142 133.81241302 -16.74936096 132.59137878 -16.75808716 131.33334351 C-16.77733879 128.01699639 -16.78324437 124.70121476 -16.78133965 121.38485074 C-16.78121903 118.60184036 -16.78981962 115.81888121 -16.79811716 113.03588527 C-16.81727686 106.46358521 -16.82026184 99.89141212 -16.81347656 93.3190918 C-16.80683641 86.57003157 -16.8297157 79.82151792 -16.86679029 73.07256848 C-16.89760966 67.24797184 -16.90883431 61.42354997 -16.90495348 55.59887356 C-16.9028991 52.13322259 -16.90815987 48.66799767 -16.93284607 45.202425 C-16.95950245 41.33338597 -16.94529238 37.4650493 -16.92773438 33.59594727 C-16.94099762 32.46882828 -16.95426086 31.34170929 -16.96792603 30.18043518 C-16.86120079 20.00001779 -14.0064172 11.51299974 -7.3125 3.75 C-3.02131226 -0.32662835 -3.02131226 -0.32662835 0 0 Z " fill="#527FC5" transform="translate(409.3125,323.25)"/>
<path d="M0 0 C3.12689094 2.55836532 3.91778988 5.16609839 5 9 C5.25726891 11.80587482 5.25726891 11.80587482 5.26742554 14.74812317 C5.27595551 15.87086136 5.28448547 16.99359955 5.29327393 18.15036011 C5.29236755 19.36764801 5.29146118 20.58493591 5.29052734 21.83911133 C5.30060318 23.7792083 5.30060318 23.7792083 5.31088257 25.75849915 C5.3285 29.29584448 5.33323616 32.83309295 5.33451414 36.37047791 C5.33593881 38.58406399 5.34021439 40.79762568 5.34550858 43.01120567 C5.36399535 50.74389577 5.37218096 58.47651705 5.37060547 66.20922852 C5.36940469 73.40065146 5.39049774 80.59177397 5.4220928 87.78312093 C5.44830387 93.9710314 5.45897074 100.15884405 5.45769465 106.34680957 C5.4571864 110.03650309 5.46279321 113.7259295 5.48405075 117.4155674 C5.5071369 121.53481985 5.49788285 125.65340547 5.48583984 129.77270508 C5.49707886 130.98392029 5.50831787 132.1951355 5.51989746 133.4430542 C5.44714135 143.25373133 2.81500662 151.71678681 -4 159 C-8.37140851 162.85161139 -12.11524015 165.36563424 -18.0625 165.375 C-20.0115625 165.189375 -20.0115625 165.189375 -22 165 C-18.78360346 163.25434889 -16.67986596 162.795563 -13 163 C-13 162.34 -13 161.68 -13 161 C-12.01 161 -11.02 161 -10 161 C-10 160.34 -10 159.68 -10 159 C-8.68 158.67 -7.36 158.34 -6 158 C-6 157.34 -6 156.68 -6 156 C-5.34 156 -4.68 156 -4 156 C-3.773125 155.360625 -3.54625 154.72125 -3.3125 154.0625 C-2 151 -2 151 -0.80125904 149.19086552 C3.52105056 142.53441432 3.71576089 136.74209669 3.65942383 128.95288086 C3.66990753 127.67384888 3.68039124 126.39481689 3.69119263 125.07702637 C3.71917031 121.59608489 3.71689782 118.11576315 3.70889878 114.63474345 C3.70575948 110.98716325 3.73084947 107.33977557 3.75285339 103.692276 C3.79020733 96.79705157 3.80243623 89.90202433 3.8054778 83.00670868 C3.81017807 75.15165772 3.84313229 67.29680314 3.87837565 59.4418391 C3.950196 43.29457106 3.9868086 27.14742469 4 11 C3.34 11 2.68 11 2 11 C0.80712589 7.12315913 0 4.08378077 0 0 Z " fill="#A0D4A8" transform="translate(857,331)"/>
<path d="M0 0 C0.75 1.75 0.75 1.75 1 4 C-0.75 5.9375 -0.75 5.9375 -3 8 C-4.02823479 9.64939716 -5.02164815 11.32053418 -6 13 C-6.77568311 14.25005233 -7.55600197 15.49723482 -8.33984375 16.7421875 C-8.76330078 17.41636719 -9.18675781 18.09054687 -9.62304688 18.78515625 C-10.49472085 20.17102721 -11.36710922 21.55644911 -12.24023438 22.94140625 C-14.93664276 27.23765633 -17.51261795 31.57926996 -20 36 C-20.66 36 -21.32 36 -22 36 C-22.07476563 36.66902344 -22.14953125 37.33804688 -22.2265625 38.02734375 C-23.26251772 42.00896962 -25.21634445 45.08884067 -27.375 48.5625 C-27.97441406 49.5515332 -27.97441406 49.5515332 -28.5859375 50.56054688 C-30.20535013 53.21073695 -31.83261782 55.77720855 -33.69921875 58.26171875 C-35.28510108 60.38099093 -36.19438995 62.66331095 -37.203125 65.09765625 C-40.48582587 72.9343 -44.81294579 80.26356596 -50 87 C-50.66 87 -51.32 87 -52 87 C-52.66 88.32 -53.32 89.64 -54 91 C-54 86.68049668 -51.63206487 83.90890547 -49.375 80.375 C-44.75693862 72.99972886 -40.44780134 65.496435 -36.25 57.875 C-29.8176478 46.2498496 -22.86950774 35.00821753 -15.75439453 23.79199219 C-12.56730517 18.71996965 -9.47829467 13.58711384 -6.41137695 8.44165039 C-5.79782349 7.42445923 -5.79782349 7.42445923 -5.171875 6.38671875 C-4.8222168 5.80108154 -4.47255859 5.21544434 -4.11230469 4.61206055 C-2.90370888 2.86044551 -1.54454005 1.45857871 0 0 Z " fill="#CBEBCE" transform="translate(682,402)"/>
<path d="M0 0 C0.99 0.495 0.99 0.495 2 1 C-2.6921388 6.71941179 -6.80267638 11.60089213 -14 14 C-15.91087269 14.09522773 -17.82493287 14.1306351 -19.73817444 14.13371277 C-21.53223976 14.14011024 -21.53223976 14.14011024 -23.36254883 14.14663696 C-24.67642578 14.14618378 -25.99030273 14.14573059 -27.34399414 14.14526367 C-28.74018951 14.14825544 -30.13638406 14.15165801 -31.53257751 14.15544128 C-35.32580603 14.16428156 -39.11901199 14.16661935 -42.9122498 14.16725707 C-46.07603712 14.16820595 -49.23981916 14.17188383 -52.40360445 14.17542917 C-59.86420581 14.18357308 -67.3247951 14.18601338 -74.78540039 14.18530273 C-82.49087742 14.18470127 -90.1962846 14.19526689 -97.90174395 14.2110464 C-104.51155079 14.22410165 -111.12133474 14.22948751 -117.73115438 14.22884732 C-121.68159944 14.22859183 -125.63198237 14.23147131 -129.58241463 14.24202538 C-133.29486895 14.25167307 -137.0072013 14.25180862 -140.71965981 14.24450874 C-142.73743908 14.24295681 -144.75521826 14.25133196 -146.77297974 14.25994873 C-147.96620346 14.25575424 -149.15942719 14.25155975 -150.3888092 14.24723816 C-151.95093439 14.24805531 -151.95093439 14.24805531 -153.54461765 14.24888897 C-156 14 -156 14 -158 12 C-156.9701961 12.00276538 -156.9701961 12.00276538 -155.91958809 12.00558662 C-139.18396046 12.04983187 -122.44835146 12.08288871 -105.71267891 12.10362434 C-97.61930358 12.11391948 -89.52596739 12.12794599 -81.43261719 12.15087891 C-74.37518914 12.17086689 -67.31778946 12.18372924 -60.2603339 12.18817699 C-56.52643692 12.19077524 -52.79262104 12.19684521 -49.05875015 12.21146011 C-44.88174146 12.22767561 -40.70487213 12.22797623 -36.52783203 12.22705078 C-34.68823662 12.23783661 -34.68823662 12.23783661 -32.81147766 12.24884033 C-22.39190428 12.22392262 -13.43967314 11.56852159 -5 5 C-4.20916016 4.17822266 -4.20916016 4.17822266 -3.40234375 3.33984375 C-2 2 -2 2 0 2 C0 1.34 0 0.68 0 0 Z " fill="#84C18C" transform="translate(716,617)"/>
<path d="M0 0 C0.99 0.66 1.98 1.32 3 2 C2.32453125 2.26554687 1.6490625 2.53109375 0.953125 2.8046875 C0.06109375 3.15789062 -0.8309375 3.51109375 -1.75 3.875 C-2.63171875 4.22304688 -3.5134375 4.57109375 -4.421875 4.9296875 C-9.96014027 7.13849756 -9.96014027 7.13849756 -13 12 C-13.7115625 13.11375 -13.7115625 13.11375 -14.4375 14.25 C-18.88886927 22.08440991 -19.43157683 28.5491017 -19.37231445 37.42358398 C-19.37596512 38.64899902 -19.37961578 39.87441406 -19.38337708 41.13696289 C-19.39006711 44.47810204 -19.38340805 47.81867863 -19.37004495 51.15976214 C-19.35866643 54.66958286 -19.36284295 58.17939036 -19.36479187 61.68922424 C-19.36567295 67.58265978 -19.35463452 73.47597989 -19.33618164 79.36938477 C-19.31502669 86.16428159 -19.31150319 92.95900933 -19.3177436 99.75393242 C-19.32345685 106.31281016 -19.31776793 112.87162889 -19.30657005 119.43049812 C-19.30194896 122.21136641 -19.30103936 124.99219832 -19.3031559 127.77306938 C-19.3054055 131.66444975 -19.29086497 135.55567229 -19.2746582 139.44702148 C-19.27713562 140.58963943 -19.27961304 141.73225739 -19.28216553 142.90950012 C-19.24015426 149.2508419 -18.62310196 154.86413481 -17 161 C-19 160 -19 160 -20.10783386 157.71798706 C-21.40543494 152.31040228 -21.28628066 147.05484434 -21.2746582 141.51220703 C-21.27976913 140.25621704 -21.28488007 139.00022705 -21.29014587 137.70617676 C-21.30349848 134.27219032 -21.30411867 130.83831421 -21.30158257 127.40430689 C-21.30051018 124.5317115 -21.30540315 121.65913818 -21.310188 118.78654754 C-21.32127054 112.00595619 -21.32172784 105.22542024 -21.31567383 98.44482422 C-21.30963624 91.46360194 -21.32194236 84.48258132 -21.3432439 77.50139344 C-21.36089247 71.49523932 -21.36685608 65.48914919 -21.36360615 59.48297012 C-21.36179812 55.90123055 -21.36438116 52.3196348 -21.37832069 48.73791885 C-21.39329618 44.74067463 -21.38390056 40.74383753 -21.37231445 36.74658203 C-21.37995819 35.5691745 -21.38760193 34.39176697 -21.39547729 33.17868042 C-21.32835011 22.68833483 -18.7996929 15.30492373 -11.625 7.375 C-8.04593757 4.13680066 -4.59989545 1.53329848 0 0 Z " fill="#C5DDFA" transform="translate(413,319)"/>
<path d="M0 0 C1.3133432 -0.00525696 2.6266864 -0.01051392 3.97982788 -0.01593018 C7.55838327 -0.02952338 11.13667712 -0.02433855 14.71523666 -0.01479292 C18.47463392 -0.00715456 22.23400999 -0.01425346 25.9934082 -0.01895142 C32.30456529 -0.02439688 38.61561678 -0.01724924 44.92675781 -0.00292969 C52.20511368 0.01339455 59.48321736 0.00810518 66.76156712 -0.0084089 C73.03022438 -0.02205838 79.29880608 -0.02392658 85.56747341 -0.0160929 C89.30288763 -0.01143533 93.03818364 -0.01073835 96.77359009 -0.02070236 C100.94035582 -0.03104226 105.10669232 -0.01667836 109.2734375 0 C110.49864105 -0.00607269 111.7238446 -0.01214539 112.98617554 -0.0184021 C119.85764971 0.03242376 125.2492477 0.81607866 131.63671875 3.38818359 C131.63671875 3.71818359 131.63671875 4.04818359 131.63671875 4.38818359 C124.01171875 3.51318359 124.01171875 3.51318359 120.63671875 2.38818359 C118.85789202 2.28945556 117.07559907 2.24890184 115.29405212 2.24101257 C114.18529724 2.23385727 113.07654236 2.22670197 111.93418884 2.21932983 C110.7170369 2.21664093 109.49988495 2.21395203 108.24584961 2.21118164 C106.96424957 2.20461044 105.68264954 2.19803925 104.36221313 2.19126892 C100.10867563 2.17023984 95.85513783 2.15986409 91.6015625 2.14990234 C90.13479659 2.14585364 88.66803087 2.14173668 87.20126534 2.13755226 C80.3060093 2.11849905 73.41076395 2.1042712 66.51548666 2.09594029 C58.57130948 2.08618255 50.62741203 2.05990215 42.68333334 2.0194394 C36.53454515 1.98920264 30.38583677 1.97446408 24.23697573 1.97115928 C20.56898461 1.96881637 16.90129224 1.95995663 13.23338127 1.9346981 C9.13319423 1.90692009 5.033625 1.91127149 0.93334961 1.91821289 C-0.87112389 1.8989978 -0.87112389 1.8989978 -2.71205139 1.87939453 C-11.86387908 1.93570731 -19.1084786 3.64298752 -26.36328125 9.38818359 C-27.02328125 9.05818359 -27.68328125 8.72818359 -28.36328125 8.38818359 C-19.95629845 0.41232812 -11.24677537 -0.05574438 0 0 Z " fill="#DCF1FE" transform="translate(574.36328125,169.61181640625)"/>
<path d="M0 0 C0.495 1.485 0.495 1.485 1 3 C0.01 3.33 -0.98 3.66 -2 4 C-2.33 4.99 -2.66 5.98 -3 7 C-4.64556566 8.03435556 -6.3170608 9.02763513 -8 10 C-11.3431563 12.57701631 -14.08427388 14.99788175 -16.6875 18.3125 C-17.450625 19.199375 -18.21375 20.08625 -19 21 C-19.99 21 -20.98 21 -22 21 C-22.25136719 21.54785156 -22.50273438 22.09570312 -22.76171875 22.66015625 C-26.30429531 29.35417316 -31.21714644 36.06756608 -37 41 C-37.66 41 -38.32 41 -39 41 C-39.0825 41.61875 -39.165 42.2375 -39.25 42.875 C-40 45 -40 45 -41.9375 45.9375 C-44.75130568 47.38703626 -44.89475534 49.12636387 -46 52 C-47.485 52.495 -47.485 52.495 -49 53 C-47.60371082 48.92809909 -45.69432398 46.10415756 -42.9375 42.8125 C-42.14085937 41.85988281 -41.34421875 40.90726562 -40.5234375 39.92578125 C-37.35968555 36.25759206 -34.12815422 32.6577478 -30.84765625 29.09375 C-28.86054661 26.93666737 -28.86054661 26.93666737 -27 24 C-26.34 24 -25.68 24 -25 24 C-24.7525 23.42765625 -24.505 22.8553125 -24.25 22.265625 C-19.12108957 12.96947485 -8.35117615 6.22993919 0 0 Z " fill="#C6ECCC" transform="translate(732,349)"/>
<path d="M0 0 C1.29853912 -0.00043808 2.59707825 -0.00087616 3.93496704 -0.00132751 C7.46957248 -0.00218277 11.00386797 0.01536588 14.53840184 0.03639436 C18.24192913 0.05524033 21.94546475 0.0569178 25.64903259 0.06047058 C32.65053759 0.06976792 39.65190084 0.0943501 46.65334362 0.12451905 C54.62919672 0.15813537 62.60505686 0.17456719 70.58096325 0.18960536 C86.97715397 0.22090195 103.37320241 0.27361705 119.76928711 0.34057617 C119.76928711 0.67057617 119.76928711 1.00057617 119.76928711 1.34057617 C119.12821298 1.34480811 118.48713884 1.34904005 117.82663822 1.35340023 C102.2012236 1.45687149 86.57585489 1.56553325 70.9505167 1.67991543 C63.39410962 1.73510647 55.83769783 1.7885646 48.28125 1.83789062 C41.69221742 1.88090613 35.10321761 1.92722665 28.51423591 1.97745472 C25.02801602 2.00391652 21.54180203 2.02876478 18.0555439 2.04965019 C14.15612585 2.07307286 10.25678441 2.10387681 6.35742188 2.13525391 C5.2115863 2.14100937 4.06575073 2.14676483 2.88519287 2.1526947 C-7.95644811 1.54985014 -7.95644811 1.54985014 -17.23071289 5.34057617 C-20.35571289 5.46557617 -20.35571289 5.46557617 -23.23071289 5.34057617 C-21.95570388 2.79055814 -21.1398642 2.6837252 -18.49513245 1.73686218 C-12.36729213 -0.17822828 -6.36948545 -0.0567165 0 0 Z " fill="#7299D0" transform="translate(575.230712890625,170.659423828125)"/>
<path d="M0 0 C1.32 0.33 2.64 0.66 4 1 C3.67 1.66 3.34 2.32 3 3 C2.34 3 1.68 3 1 3 C1 3.66 1 4.32 1 5 C0.34 5 -0.32 5 -1 5 C-1 5.66 -1 6.32 -1 7 C-1.66 7 -2.32 7 -3 7 C-6.88771901 22.72356343 -6.55312467 38.75134587 -6.66955566 54.83526611 C-6.69975561 58.58365419 -6.74614592 62.33184204 -6.79101562 66.08007812 C-6.87617454 73.38661765 -6.94389921 80.69317327 -7 88 C-7.33 88 -7.66 88 -8 88 C-8.29824201 75.56981234 -8.57660447 63.13947698 -8.81924438 50.70806885 C-8.93087555 45.07100411 -9.07094781 39.43632322 -9.2421875 33.80078125 C-9.57644218 20.22119334 -8.98257121 10.82514992 0 0 Z " fill="#B3D1EB" transform="translate(544,179)"/>
<path d="M0 0 C0.33 0 0.66 0 1 0 C1.43622686 3.75155102 1.33810573 5.50436371 -0.81852722 8.66581726 C-5.49656478 12.09799955 -9.54906646 11.70524839 -15.21606445 11.65942383 C-16.91428093 11.67514938 -16.91428093 11.67514938 -18.64680481 11.69119263 C-22.38590797 11.71997516 -26.124087 11.7136468 -29.86328125 11.70703125 C-32.45689557 11.72014422 -35.05049968 11.7354472 -37.64408875 11.75285339 C-43.77095893 11.78868433 -49.89751375 11.80244053 -56.02447623 11.8054778 C-63.0015916 11.81017014 -69.97848483 11.84309896 -76.95550215 11.87837565 C-91.30363355 11.95029028 -105.65170047 11.98682372 -120 12 C-120 11.67 -120 11.34 -120 11 C-114.9778961 9.67626596 -109.9659075 9.85532284 -104.81298828 9.8581543 C-103.78962372 9.85467987 -102.76625916 9.85120544 -101.71188354 9.84762573 C-99.49277411 9.84028271 -97.2736574 9.83492959 -95.05453873 9.83133507 C-91.54043905 9.82415774 -88.02647804 9.80848221 -84.51242065 9.78999329 C-74.52213418 9.73757819 -64.531925 9.68953682 -54.54150391 9.67407227 C-48.42775292 9.66398858 -42.31435305 9.63465677 -36.20074081 9.59275246 C-33.87320486 9.58044644 -31.54561933 9.57532046 -29.21805191 9.57755089 C-25.96025371 9.57990497 -22.70346279 9.55772893 -19.44580078 9.5300293 C-18.00856659 9.53993141 -18.00856659 9.53993141 -16.54229736 9.55003357 C-10.53015296 9.46621655 -6.89801651 8.56679976 -2 5 C-0.50886646 2.4091705 -0.50886646 2.4091705 0 0 Z " fill="#6694D7" transform="translate(536,308)"/>
<path d="M0 0 C0.495 1.98 0.495 1.98 1 4 C-0.54101884 5.12588723 -2.08287591 6.25062711 -3.625 7.375 C-4.62789062 8.1071875 -5.63078125 8.839375 -6.6640625 9.59375 C-8.91170139 11.22499298 -11.17770153 12.82525299 -13.4609375 14.40625 C-20.26191986 19.13585283 -26.51830379 24.03083947 -32.5625 29.71484375 C-34.6164843 31.64045403 -36.7113365 33.45145472 -38.875 35.25 C-43.51087433 39.23878354 -47.53992361 43.8242661 -51.60888672 48.37792969 C-53.03447174 49.95395761 -54.5131874 51.4815979 -56 53 C-56.66 53 -57.32 53 -58 53 C-54.2126697 44.11434046 -45.31327344 37.05131565 -38 31 C-36.74791759 29.93995477 -35.49784027 28.87753564 -34.25 27.8125 C-33.71890625 27.36519531 -33.1878125 26.91789062 -32.640625 26.45703125 C-30.92301784 24.96817069 -30.92301784 24.96817069 -29.1484375 23.08984375 C-26.70843523 20.716387 -24.12662373 18.7525294 -21.375 16.75 C-19.93253906 15.69039063 -19.93253906 15.69039063 -18.4609375 14.609375 C-16 13 -16 13 -14 13 C-14 12.34 -14 11.68 -14 11 C-11.8828125 9.4921875 -11.8828125 9.4921875 -9.125 7.875 C-8.22007812 7.33617187 -7.31515625 6.79734375 -6.3828125 6.2421875 C-4 5 -4 5 -2 5 C-2 4.34 -2 3.68 -2 3 C-1.34 3 -0.68 3 0 3 C0 2.01 0 1.02 0 0 Z " fill="#BDD8F6" transform="translate(721,330)"/>
<path d="M0 0 C0.33 0 0.66 0 1 0 C1 32.34 1 64.68 1 98 C1.66 98 2.32 98 3 98 C1.9559635 104.68183363 0.5957524 110.7465965 -2 117 C-3.16888807 113.4933358 -2.43944143 111.79649227 -1.50127029 108.33018494 C-0.57932453 104.0444649 -0.69095553 99.72888846 -0.68115234 95.36132812 C-0.67110672 94.32628143 -0.6610611 93.29123474 -0.65071106 92.224823 C-0.61998927 88.82697062 -0.60287445 85.42919665 -0.5859375 82.03125 C-0.56721702 79.66613089 -0.54764295 77.30101839 -0.5272522 74.93591309 C-0.47601815 68.72835193 -0.43634566 62.52076915 -0.39910889 56.31311035 C-0.35901454 49.97170702 -0.30794698 43.630393 -0.2578125 37.2890625 C-0.16115651 24.85943782 -0.07671867 12.42976261 0 0 Z " fill="#92CD9D" transform="translate(721,499)"/>
<path d="M0 0 C0.99 1.485 0.99 1.485 2 3 C-2.1554305 6.48157691 -4.90405285 8.11511178 -10.33782959 8.15148926 C-11.22373779 8.15983292 -12.109646 8.16817657 -13.0223999 8.17677307 C-14.47649261 8.1830497 -14.47649261 8.1830497 -15.95996094 8.18945312 C-16.98303345 8.19774643 -18.00610596 8.20603973 -19.06018066 8.21458435 C-21.28477169 8.23199617 -23.50938116 8.24715988 -25.73400116 8.26036072 C-29.25633022 8.28138102 -32.77856739 8.30840694 -36.30084229 8.33703613 C-43.78385948 8.39676766 -51.26691974 8.44887232 -58.75 8.5 C-67.40716942 8.55927096 -76.06429401 8.62166378 -84.72138214 8.69187927 C-88.18840599 8.71839839 -91.65543444 8.73925009 -95.12249756 8.7598877 C-97.25582085 8.77649874 -99.38914212 8.79337129 -101.52246094 8.81054688 C-102.48375916 8.81473129 -103.44505737 8.81891571 -104.43548584 8.82322693 C-109.39205485 8.869322 -114.11270335 9.16145879 -119 10 C-118.67 9.34 -118.34 8.68 -118 8 C-113.16071171 6.45972896 -107.8988107 6.84015477 -102.87304688 6.82641602 C-101.34781151 6.8163855 -101.34781151 6.8163855 -99.79176331 6.80615234 C-97.58738899 6.79212219 -95.38300033 6.78022169 -93.17860413 6.77020454 C-89.69026447 6.75377206 -86.20203159 6.73053456 -82.71374512 6.70530701 C-72.79701057 6.63458273 -62.8802334 6.57435014 -52.96337891 6.52319336 C-46.8951122 6.49141331 -40.82697014 6.45014487 -34.75880432 6.40299797 C-32.44635761 6.38697786 -30.13388222 6.37465634 -27.82139587 6.36609077 C-24.58978599 6.35394493 -21.35846975 6.32979914 -18.12695312 6.30297852 C-17.17095718 6.30238937 -16.21496124 6.30180023 -15.22999573 6.30119324 C-8.87991837 6.24841571 -8.87991837 6.24841571 -3 4 C-1.19651922 1.98682781 -1.19651922 1.98682781 0 0 Z " fill="#D8F3FE" transform="translate(533,310)"/>
<path d="M0 0 C1.32 0 2.64 0 4 0 C2.5409708 4.45951864 0.08599574 7.68255256 -2.9375 11.1875 C-3.41678955 11.74977295 -3.8960791 12.3120459 -4.38989258 12.89135742 C-9.18269247 18.40303831 -14.45754039 23.25085183 -20 28 C-20.66 27.67 -21.32 27.34 -22 27 C-21.360625 26.4225 -20.72125 25.845 -20.0625 25.25 C-18.01776132 23.01937599 -17.41794801 21.92563609 -17 19 C-16.34 19 -15.68 19 -15 19 C-14.690625 18.38125 -14.38125 17.7625 -14.0625 17.125 C-13.375 15.75 -12.6875 14.375 -12 13 C-11.01 13 -10.02 13 -9 13 C-8.34 11.35 -7.68 9.7 -7 8 C-6.34 8 -5.68 8 -5 8 C-5 7.01 -5 6.02 -5 5 C-4.34 5 -3.68 5 -3 5 C-2.690625 4.360625 -2.38125 3.72125 -2.0625 3.0625 C-1 1 -1 1 0 0 Z " fill="#477FCE" transform="translate(595,481)"/>
<path d="M0 0 C-0.52207031 0.21914063 -1.04414062 0.43828125 -1.58203125 0.6640625 C-8.67437897 3.71960985 -16.04247815 6.97035183 -22.19921875 11.68359375 C-24 13 -24 13 -26 13 C-26.165 13.70125 -26.33 14.4025 -26.5 15.125 C-28.70298699 19.34739173 -31.78627403 21.81972715 -36 24 C-38.8768216 24.47296897 -41.06552116 24.31440845 -44 24 C-40.36298458 20.14380475 -36.60527596 17.10549288 -32.1875 14.1875 C-31.54312988 13.75953125 -30.89875977 13.3315625 -30.23486328 12.890625 C-23.14576645 8.28860115 -15.669124 4.53160564 -8 1 C-7.08476563 0.5771875 -6.16953125 0.154375 -5.2265625 -0.28125 C-3 -1 -3 -1 0 0 Z " fill="#54AB62" transform="translate(777,325)"/>
<path d="M0 0 C1.18223145 -0.00483398 2.36446289 -0.00966797 3.58251953 -0.01464844 C5.27417236 -0.01126465 5.27417236 -0.01126465 7 -0.0078125 C8.010625 -0.00668457 9.02125 -0.00555664 10.0625 -0.00439453 C13.1110459 0.12989148 16.00308494 0.56363589 19 1.125 C19 1.455 19 1.785 19 2.125 C17.70304199 2.154729 17.70304199 2.154729 16.37988281 2.18505859 C-13.51780294 2.6282376 -13.51780294 2.6282376 -43 7.125 C-33.37886457 -2.49613543 -12.48996864 0.04971462 0 0 Z " fill="#83C18D" transform="translate(820,316.875)"/>
<path d="M0 0 C0.66 0 1.32 0 2 0 C-0.30260136 4.92479571 -3.59292957 9.08199909 -6.8125 13.4375 C-7.42931641 14.28376953 -8.04613281 15.13003906 -8.68164062 16.00195312 C-11.8833969 20.34695075 -15.15883142 24.19816079 -19 28 C-20.32583853 29.90028308 -21.59944447 31.83831159 -22.8125 33.8125 C-23.41707031 34.78832031 -24.02164063 35.76414062 -24.64453125 36.76953125 C-25.09183594 37.50558594 -25.53914062 38.24164063 -26 39 C-26.64453125 37.24609375 -26.64453125 37.24609375 -27 35 C-26.07421875 33.03515625 -26.07421875 33.03515625 -24.6875 31.0625 C-22.70638865 28.11834841 -21.16139039 25.37859023 -20 22 C-19.01 22 -18.02 22 -17 22 C-16.938125 21.401875 -16.87625 20.80375 -16.8125 20.1875 C-15.67717105 17.13084514 -13.78847225 16.53365974 -11 15 C-10.67 14.34 -10.34 13.68 -10 13 C-9.34 13 -8.68 13 -8 13 C-7.71125 12.236875 -7.4225 11.47375 -7.125 10.6875 C-6 8 -6 8 -4 5 C-3.34 5 -2.68 5 -2 5 C-1.34 3.35 -0.68 1.7 0 0 Z " fill="#5587CF" transform="translate(660,385)"/>
<path d="M0 0 C0 0.66 0 1.32 0 2 C-8.42857143 5.42857143 -8.42857143 5.42857143 -13 5 C-13.97241945 7.91725834 -14.15167819 9.88803439 -14.20532227 12.93041992 C-14.2352401 14.43163643 -14.2352401 14.43163643 -14.26576233 15.96318054 C-14.28247482 17.04138565 -14.29918732 18.11959076 -14.31640625 19.23046875 C-14.33718735 20.33602615 -14.35796844 21.44158356 -14.37937927 22.5806427 C-14.44482332 26.1161979 -14.50373603 29.65182806 -14.5625 33.1875 C-14.6056901 35.58269008 -14.64930454 37.97787255 -14.69335938 40.37304688 C-14.80049948 46.24861842 -14.90227557 52.12426472 -15 58 C-15.33 58 -15.66 58 -16 58 C-16 39.85 -16 21.7 -16 3 C-4 0 -4 0 0 0 Z " fill="#55AC62" transform="translate(554,546)"/>
<path d="M0 0 C1 2 1 2 0.328125 4.171875 C-4.125 14.82065217 -4.125 14.82065217 -6 18 C-6.99 18.33 -7.98 18.66 -9 19 C-9.1546875 20.3921875 -9.1546875 20.3921875 -9.3125 21.8125 C-10.00531495 25.02464205 -10.3879169 26.11930017 -13 28 C-13.66 28 -14.32 28 -15 28 C-12.68329576 20.51526323 -8.97727693 14.19596046 -4.8125 7.625 C-4.34908203 6.88894531 -3.88566406 6.15289062 -3.40820312 5.39453125 C-2.27460416 3.59479681 -1.13764469 1.79717979 0 0 Z " fill="#62B06D" transform="translate(657,445)"/>
<path d="M0 0 C0 4.10746566 -1.63960436 5.19754861 -4.375 8.1875 C-5.18710937 9.08855469 -5.99921875 9.98960937 -6.8359375 10.91796875 C-9 13 -9 13 -11 13 C-11.0825 13.61875 -11.165 14.2375 -11.25 14.875 C-12 17 -12 17 -13.9375 17.9375 C-16.75130568 19.38703626 -16.89475534 21.12636387 -18 24 C-18.99 24.33 -19.98 24.66 -21 25 C-19.57506007 20.77114601 -17.49615034 17.89577914 -14.625 14.5 C-13.85414063 13.5821875 -13.08328125 12.664375 -12.2890625 11.71875 C-11.15597656 10.37296875 -11.15597656 10.37296875 -10 9 C-9.30003906 8.09765625 -8.60007812 7.1953125 -7.87890625 6.265625 C-5.82078628 3.7839003 -3.81753295 2.52299078 -1 1 C-0.67 0.67 -0.34 0.34 0 0 Z " fill="#9AD1A8" transform="translate(704,377)"/>
<path d="M0 0 C0 0.66 0 1.32 0 2 C-1.65848177 3.01351664 -3.32665961 4.01120795 -5 5 C-5.66 5.66 -6.32 6.32 -7 7 C-9.17976218 9.17976218 -11.26087401 10.59532 -14 12 C-14.99 12 -15.98 12 -17 12 C-17 12.66 -17 13.32 -17 14 C-22.04140164 16.81532819 -26.22621075 18.5188509 -32 19 C-29.22743098 15.5867995 -25.38544167 14.13033486 -21.5 12.3125 C-15.11995356 9.24753321 -9.61701391 5.85022241 -4.0390625 1.46875 C-2 0 -2 0 0 0 Z " fill="#C2E0C6" transform="translate(601,521)"/>
<path d="M0 0 C1.37526858 4.12580574 0.03716987 5.86505489 -1.77734375 9.66015625 C-5.40123663 16.59533784 -9.68865656 21.71519353 -17 25 C-20.19168192 25.45871374 -22.75712297 25.30884543 -26 25 C-22.78360346 23.25434889 -20.67986596 22.795563 -17 23 C-17 22.34 -17 21.68 -17 21 C-16.01 21 -15.02 21 -14 21 C-14 20.34 -14 19.68 -14 19 C-12.68 18.67 -11.36 18.34 -10 18 C-10 17.34 -10 16.68 -10 16 C-9.34 16 -8.68 16 -8 16 C-7.73445312 15.29488281 -7.46890625 14.58976562 -7.1953125 13.86328125 C-5.93501033 10.84432214 -4.46042006 8.04814924 -2.875 5.1875 C-2.33617187 4.21167969 -1.79734375 3.23585938 -1.2421875 2.23046875 C-0.83226562 1.49441406 -0.42234375 0.75835937 0 0 Z " fill="#A6DBAD" transform="translate(861,471)"/>
<path d="M0 0 C1 2 1 2 0.65234375 3.8046875 C-1.13712938 8.9873146 -2.92931057 11.41071178 -8 14 C-8.66 14 -9.32 14 -10 14 C-10.26039063 14.58652344 -10.52078125 15.17304688 -10.7890625 15.77734375 C-13.49467807 20.7434575 -18.36051224 24.84514833 -23 28 C-23.66 27.67 -24.32 27.34 -25 27 C-24.18917969 26.29617188 -23.37835937 25.59234375 -22.54296875 24.8671875 C-14.31561975 17.580214 -7.56998447 9.78923495 -1 1 C-0.67 0.67 -0.34 0.34 0 0 Z " fill="#A4D9AB" transform="translate(626,493)"/>
<path d="M0 0 C1 3 1 3 -0.4375 6.1875 C-1.2109375 7.5796875 -1.2109375 7.5796875 -2 9 C-2.66 9 -3.32 9 -4 9 C-4.020625 9.825 -4.04125 10.65 -4.0625 11.5 C-5.37239349 16.39026903 -8.28251827 19.61734919 -12 23 C-12.66 23 -13.32 23 -14 23 C-12.72341628 19.53498703 -11.23378941 16.65160449 -9.125 13.625 C-7.20798415 10.82428659 -5.39778664 8.02975489 -3.75 5.0625 C-2 2 -2 2 0 0 Z " fill="#5EB26B" transform="translate(677,413)"/>
<path d="M0 0 C1.32 0.33 2.64 0.66 4 1 C3.67 1.66 3.34 2.32 3 3 C2.34 3 1.68 3 1 3 C1 3.66 1 4.32 1 5 C0.34 5 -0.32 5 -1 5 C-1 5.66 -1 6.32 -1 7 C-1.66 7 -2.32 7 -3 7 C-5.25881283 18.35088965 -6.58019832 29.43373997 -7 41 C-7.33 41 -7.66 41 -8 41 C-8.02945031 37.68751922 -8.04694801 34.37507289 -8.0625 31.0625 C-8.07087891 30.13630859 -8.07925781 29.21011719 -8.08789062 28.25585938 C-8.14610263 11.66543812 -8.14610263 11.66543812 -4.5625 6.625 C-4.13066406 5.99851563 -3.69882812 5.37203125 -3.25390625 4.7265625 C-2.84011719 4.15679687 -2.42632813 3.58703125 -2 3 C-1.34 2.01 -0.68 1.02 0 0 Z " fill="#95B5E3" transform="translate(544,179)"/>
<path d="M0 0 C0.99 0.33 1.98 0.66 3 1 C-6.47979691 8.18884599 -19.84741123 15.46088331 -32 16 C-33.67583928 15.71636007 -35.34657845 15.39380969 -37 15 C-37 14.67 -37 14.34 -37 14 C-36.23558594 13.92523437 -35.47117187 13.85046875 -34.68359375 13.7734375 C-22.59957025 12.29019996 -11.45006013 8.51661626 -1.734375 1.00390625 C-0.87585938 0.50697266 -0.87585938 0.50697266 0 0 Z " fill="#DFEEFC" transform="translate(570,509)"/>
<path d="M0 0 C2 1 2 1 2.78125 2.8125 C3.26041667 4.27083333 3.73958333 5.72916667 4.21875 7.1875 C4.85329445 9.19512796 4.85329445 9.19512796 7 10 C7 10.99 7 11.98 7 13 C7.66 13 8.32 13 9 13 C11 16 11 16 11 19 C12.32 19 13.64 19 15 19 C15.66 20.32 16.32 21.64 17 23 C16.46375 22.71125 15.9275 22.4225 15.375 22.125 C12.95914247 20.88559892 12.95914247 20.88559892 10 20.25 C6.13440443 18.63933518 4.55571119 16.76827822 3 13 C1.80904321 8.70131047 0.85712292 4.37652159 0 0 Z " fill="#6A96D5" transform="translate(393,469)"/>
<path d="M0 0 C0.556875 0.2475 1.11375 0.495 1.6875 0.75 C-0.70759338 3.64932357 -2.62495243 4.25168276 -6.3125 4.75 C-6.395 5.471875 -6.4775 6.19375 -6.5625 6.9375 C-7.3125 9.75 -7.3125 9.75 -9.3125 12.1875 C-11.59402851 15.1107084 -11.97351098 17.10586806 -12.3125 20.75 C-12.9725 20.75 -13.6325 20.75 -14.3125 20.75 C-14.9725 22.07 -15.6325 23.39 -16.3125 24.75 C-15.33138819 15.42943777 -11.5544813 7.77988223 -4.8125 1.375 C-2.3125 -0.25 -2.3125 -0.25 0 0 Z " fill="#588CD6" transform="translate(409.3125,323.25)"/>
<path d="M0 0 C0.66 0 1.32 0 2 0 C2.15855469 0.58007812 2.31710937 1.16015625 2.48046875 1.7578125 C4.70116669 9.19285642 7.71345597 13.34330072 14 18 C14 18.66 14 19.32 14 20 C14.9075 20.268125 15.815 20.53625 16.75 20.8125 C19.71471963 21.89576294 21.6169754 22.98359457 24 25 C17.16502479 24.64948845 11.8147412 20.95486901 7.1953125 16.10546875 C3.61104107 11.58500703 0 5.9569501 0 0 Z " fill="#D4F0D8" transform="translate(536,606)"/>
<path d="M0 0 C0 3 0 3 -2.16015625 5.41796875 C-3.12088872 6.34813246 -4.08878657 7.27093382 -5.0625 8.1875 C-9.14601953 12.1278073 -12.9686376 16.13658106 -16.5625 20.5390625 C-18 22 -18 22 -21 23 C-17.21045161 14.10913648 -8.29931115 7.06052466 -1 1 C-0.67 0.67 -0.34 0.34 0 0 Z " fill="#B4CFF2" transform="translate(684,360)"/>
<path d="M0 0 C1.32 0.33 2.64 0.66 4 1 C2.54634731 2.17249353 1.08692581 3.33783816 -0.375 4.5 C-1.18710937 5.1496875 -1.99921875 5.799375 -2.8359375 6.46875 C-5 8 -5 8 -7 8 C-7.24492188 8.58265625 -7.48984375 9.1653125 -7.7421875 9.765625 C-9.20435874 12.36302236 -10.84740414 13.83975831 -13.125 15.75 C-14.21167969 16.67039062 -14.21167969 16.67039062 -15.3203125 17.609375 C-15.87460937 18.06828125 -16.42890625 18.5271875 -17 19 C-17.33 18.01 -17.66 17.02 -18 16 C-17.34 15.01 -16.68 14.02 -16 13 C-15.01 13 -14.02 13 -13 13 C-12.71125 12.38125 -12.4225 11.7625 -12.125 11.125 C-11 9 -11 9 -9 7 C-8.01 7 -7.02 7 -6 7 C-6 6.34 -6 5.68 -6 5 C-5.01 5 -4.02 5 -3 5 C-3 4.01 -3 3.02 -3 2 C-2.01 2 -1.02 2 0 2 C0 1.34 0 0.68 0 0 Z " fill="#5085CD" transform="translate(698,345)"/>
<path d="M0 0 C0.734375 1.7421875 0.734375 1.7421875 1 4 C-0.546875 6.0703125 -0.546875 6.0703125 -2.75 8.125 C-3.46671875 8.80820312 -4.1834375 9.49140625 -4.921875 10.1953125 C-8.4512479 13.26029423 -10.36686455 14.25043975 -15 14 C-14.34 13.67 -13.68 13.34 -13 13 C-13 12.34 -13 11.68 -13 11 C-11.171875 9.4140625 -11.171875 9.4140625 -8.75 7.625 C-5.576007 5.27043656 -2.73926438 2.85235328 0 0 Z " fill="#73BB7E" transform="translate(614,510)"/>
<path d="M0 0 C0.99 0.33 1.98 0.66 3 1 C2.8864371 2.64666203 2.75882619 4.29236082 2.625 5.9375 C2.55539062 6.85402344 2.48578125 7.77054688 2.4140625 8.71484375 C2.27742187 9.46894531 2.14078125 10.22304687 2 11 C1.01 11.495 1.01 11.495 0 12 C0 11.34 0 10.68 0 10 C-0.66 10 -1.32 10 -2 10 C-2 10.66 -2 11.32 -2 12 C-2.66 12 -3.32 12 -4 12 C-4.33 13.32 -4.66 14.64 -5 16 C-4.88512252 14.41590006 -4.75765492 12.83271037 -4.625 11.25 C-4.55539062 10.36828125 -4.48578125 9.4865625 -4.4140625 8.578125 C-4.00149945 6.00933618 -3.28839043 4.24158985 -2 2 C-1.34 2 -0.68 2 0 2 C0 1.34 0 0.68 0 0 Z " fill="#3E82D9" transform="translate(543,184)"/>
<path d="M0 0 C0.66 0.33 1.32 0.66 2 1 C-1.3296486 4.74585468 -4.33957743 6.85721002 -8.875 8.953125 C-11.82745516 10.40764335 -14.51144726 12.21054866 -17.23828125 14.046875 C-19 15 -19 15 -22 15 C-21.67 14.01 -21.34 13.02 -21 12 C-20.195625 11.87625 -19.39125 11.7525 -18.5625 11.625 C-17.716875 11.41875 -16.87125 11.2125 -16 11 C-15.67 10.34 -15.34 9.68 -15 9 C-13.02111039 8.27306096 -11.02045442 7.60183749 -9 7 C-9 6.34 -9 5.68 -9 5 C-7.35 4.67 -5.7 4.34 -4 4 C-3.67 3.01 -3.34 2.02 -3 1 C-2.01 0.67 -1.02 0.34 0 0 Z " fill="#5A8AD0" transform="translate(576,503)"/>
<path d="M0 0 C-0.52207031 0.21914063 -1.04414062 0.43828125 -1.58203125 0.6640625 C-8.63528141 3.70276572 -16.02009347 6.92161926 -22.12109375 11.640625 C-24.63830477 13.46180886 -26.95480612 13.65395524 -30 14 C-24.49901644 8.07989389 -8.14199517 -2.71399839 0 0 Z " fill="#CDEFD2" transform="translate(777,325)"/>
<path d="M0 0 C0.66 0 1.32 0 2 0 C-1.79058925 8.27703547 -9.2035839 14.20532324 -16 20 C-16.66 19.67 -17.32 19.34 -18 19 C-15.1184945 16.02844746 -12.17185754 13.28623653 -9 10.625 C-6.28329789 8.29273686 -4.14404843 6.01939046 -2.125 3.0625 C-1.42375 2.051875 -0.7225 1.04125 0 0 Z " fill="#BCD8F1" transform="translate(591,489)"/>
<path d="M0 0 C0.33 0.66 0.66 1.32 1 2 C-0.24508856 4.44037359 -1.54172615 6.6892634 -3 9 C-3.50660156 9.81210937 -4.01320313 10.62421875 -4.53515625 11.4609375 C-7.60280162 16.23953004 -7.60280162 16.23953004 -9 18 C-9.66 18 -10.32 18 -11 18 C-11.66 19.32 -12.32 20.64 -13 22 C-13 18.6259406 -12.39086296 17.6255629 -10.6640625 14.8046875 C-10.17679688 14.00675781 -9.68953125 13.20882813 -9.1875 12.38671875 C-8.671875 11.55785156 -8.15625 10.72898437 -7.625 9.875 C-7.11710938 9.03839844 -6.60921875 8.20179688 -6.0859375 7.33984375 C-2.26202064 1.13101032 -2.26202064 1.13101032 0 0 Z " fill="#A8DFAF" transform="translate(641,471)"/>
<path d="M0 0 C0.75 1.75 0.75 1.75 1 4 C-0.75 5.9375 -0.75 5.9375 -3 8 C-4.03315113 9.64632212 -5.02913546 11.31619484 -6 13 C-9 18 -9 18 -12 23 C-12.89378238 20.55906361 -13.19340005 19.44360214 -12.13549805 17.01708984 C-11.68215088 16.33855957 -11.22880371 15.6600293 -10.76171875 14.9609375 C-10.27123047 14.21585937 -9.78074219 13.47078125 -9.27539062 12.703125 C-8.48938477 11.55070312 -8.48938477 11.55070312 -7.6875 10.375 C-7.17509766 9.59898437 -6.66269531 8.82296875 -6.13476562 8.0234375 C-2.3721388 2.3721388 -2.3721388 2.3721388 0 0 Z " fill="#C6EACA" transform="translate(682,402)"/>
<path d="M0 0 C0.99 0.66 1.98 1.32 3 2 C2.32453125 2.26554687 1.6490625 2.53109375 0.953125 2.8046875 C0.06109375 3.15789062 -0.8309375 3.51109375 -1.75 3.875 C-2.63171875 4.22304688 -3.5134375 4.57109375 -4.421875 4.9296875 C-9.96014027 7.13849756 -9.96014027 7.13849756 -13 12 C-13.7425 13.175625 -13.7425 13.175625 -14.5 14.375 C-16.10195874 17.17842779 -17.06768027 19.9161732 -18 23 C-18.33 23 -18.66 23 -19 23 C-19.41449798 16.93245515 -17.6688447 14.16905609 -14.14453125 9.41015625 C-10.2218225 5.00157465 -5.59444849 1.86481616 0 0 Z " fill="#BAD0F4" transform="translate(413,319)"/>
<path d="M0 0 C0.66 0.33 1.32 0.66 2 1 C-7.24906925 12.2740134 -7.24906925 12.2740134 -14.875 13.75 C-16.421875 13.87375 -16.421875 13.87375 -18 14 C-17.01 13.67 -16.02 13.34 -15 13 C-15 12.34 -15 11.68 -15 11 C-14.39671875 10.68546875 -13.7934375 10.3709375 -13.171875 10.046875 C-8.8496809 7.73240977 -5.36094221 5.62981758 -2 2 C-1.34 2 -0.68 2 0 2 C0 1.34 0 0.68 0 0 Z " fill="#C4E8CA" transform="translate(716,617)"/>
<path d="M0 0 C0.66 0.99 1.32 1.98 2 3 C-3.20576168 7.36158411 -6.64552271 8.14778118 -13.29296875 8.09765625 C-14.35201164 8.09553383 -14.35201164 8.09553383 -15.43244934 8.09336853 C-17.68417626 8.08777764 -19.93580321 8.07522688 -22.1875 8.0625 C-23.71549335 8.05748382 -25.24348827 8.05292112 -26.77148438 8.04882812 C-30.51436135 8.0378112 -34.25716373 8.02055287 -38 8 C-38 7.67 -38 7.34 -38 7 C-36.67609253 6.970271 -36.67609253 6.970271 -35.32543945 6.93994141 C-32.03578043 6.86162134 -28.74656036 6.77492145 -25.45727539 6.68261719 C-24.0364627 6.64444851 -22.61555737 6.60957487 -21.19458008 6.578125 C-19.14631145 6.53220935 -17.09867392 6.47426195 -15.05078125 6.4140625 C-13.82012939 6.3826416 -12.58947754 6.3512207 -11.3215332 6.31884766 C-6.97094367 5.90121664 -4.06185735 5.2449362 -1.1875 1.875 C-0.795625 1.25625 -0.40375 0.6375 0 0 Z " fill="#D1E9FF" transform="translate(533,310)"/>
<path d="M0 0 C0.66 0 1.32 0 2 0 C0.54890729 3.12638859 -1.20340626 5.78276479 -3.2578125 8.546875 C-4.19560547 9.81337891 -4.19560547 9.81337891 -5.15234375 11.10546875 C-5.80332031 11.97816406 -6.45429687 12.85085938 -7.125 13.75 C-7.78371094 14.63816406 -8.44242188 15.52632813 -9.12109375 16.44140625 C-10.74464499 18.62967096 -12.37102826 20.81576909 -14 23 C-14.64453125 21.203125 -14.64453125 21.203125 -15 19 C-12.6875 15.75 -12.6875 15.75 -10 13 C-9.34 13 -8.68 13 -8 13 C-7.566875 11.8553125 -7.566875 11.8553125 -7.125 10.6875 C-6 8 -6 8 -4 5 C-3.34 5 -2.68 5 -2 5 C-1.34 3.35 -0.68 1.7 0 0 Z " fill="#C1D8F6" transform="translate(660,385)"/>
<path d="M0 0 C1.32 0.33 2.64 0.66 4 1 C3.67 1.99 3.34 2.98 3 4 C2.01 3.67 1.02 3.34 0 3 C-0.66 4.65 -1.32 6.3 -2 8 C-2.66 8 -3.32 8 -4 8 C-4.28875 8.5775 -4.5775 9.155 -4.875 9.75 C-5.91666667 11.83333333 -6.95833333 13.91666667 -8 16 C-8.66 16 -9.32 16 -10 16 C-10.33 16.66 -10.66 17.32 -11 18 C-11 17.01 -11 16.02 -11 15 C-10.34 15 -9.68 15 -9 15 C-8.67 12.69 -8.34 10.38 -8 8 C-7.01 8 -6.02 8 -5 8 C-4.67 7.01 -4.34 6.02 -4 5 C-3.01 4.67 -2.02 4.34 -1 4 C-0.26676204 1.98491642 -0.26676204 1.98491642 0 0 Z " fill="#548AD4" transform="translate(660,382)"/>
<path d="M0 0 C0 0.66 0 1.32 0 2 C-2.1171875 3.5078125 -2.1171875 3.5078125 -4.875 5.125 C-5.77992188 5.66382813 -6.68484375 6.20265625 -7.6171875 6.7578125 C-10 8 -10 8 -12 8 C-12 8.66 -12 9.32 -12 10 C-13.65 10.66 -15.3 11.32 -17 12 C-16.44299928 8.76939581 -15.70784878 6.9341777 -13 5 C-10.3125 4.8125 -10.3125 4.8125 -8 5 C-8 4.34 -8 3.68 -8 3 C-7.01 3 -6.02 3 -5 3 C-5 2.34 -5 1.68 -5 1 C-3 0 -3 0 0 0 Z " fill="#4980D3" transform="translate(719,333)"/>
<path d="M0 0 C0.66 0 1.32 0 2 0 C0.61734433 5.53062269 -2.11811012 9.87665285 -6 14 C-8.1953125 15.234375 -8.1953125 15.234375 -10 16 C-8.84826645 13.53199953 -7.95216435 11.95216435 -6 10 C-5.29289322 8.35008418 -4.62056011 6.68437744 -4 5 C-3.34 5 -2.68 5 -2 5 C-1.34 3.35 -0.68 1.7 0 0 Z " fill="#5DAF6D" transform="translate(688,396)"/>
<path d="M0 0 C0.33 0 0.66 0 1 0 C1.33 8.25 1.66 16.5 2 25 C2.99 25.33 3.98 25.66 5 26 C5 27.98 5 29.96 5 32 C2.20448001 29.93374609 1.98932074 28.93117808 1.4375 25.375 C1.293125 24.26125 1.14875 23.1475 1 22 C0.34 21.67 -0.32 21.34 -1 21 C-0.67 14.07 -0.34 7.14 0 0 Z " fill="#8FC796" transform="translate(537,584)"/>
<path d="M0 0 C0 3.22550204 -0.38544324 3.98760774 -2.046875 6.6171875 C-2.6965625 7.65166016 -2.6965625 7.65166016 -3.359375 8.70703125 C-3.81828125 9.42246094 -4.2771875 10.13789063 -4.75 10.875 C-5.1934375 11.58269531 -5.636875 12.29039062 -6.09375 13.01953125 C-8.53072053 16.86851117 -11.06572268 20.50354806 -14 24 C-13.47061822 19.26248169 -11.27628411 15.87696309 -8.6875 12 C-8.29626953 11.39671875 -7.90503906 10.7934375 -7.50195312 10.171875 C-5.1762239 6.62349874 -2.70834628 3.27232686 0 0 Z " fill="#C8DDF8" transform="translate(644,408)"/>
<path d="M0 0 C0 0.66 0 1.32 0 2 C-8.42857143 5.42857143 -8.42857143 5.42857143 -13 5 C-13.33 5.99 -13.66 6.98 -14 8 C-14.33 7.01 -14.66 6.02 -15 5 C-14.01 4.67 -13.02 4.34 -12 4 C-12 3.34 -12 2.68 -12 2 C-10.7625 1.67 -9.525 1.34 -8.25 1 C-7.55390625 0.814375 -6.8578125 0.62875 -6.140625 0.4375 C-4 0 -4 0 0 0 Z " fill="#5CB26A" transform="translate(554,546)"/>
<path d="M0 0 C1.37228608 4.11685823 0.0356752 5.83855752 -1.7421875 9.63671875 C-3.5413047 13.01704764 -5.67277832 15.9616828 -8 19 C-9 16 -9 16 -7.3828125 12.71484375 C-6.64046274 11.44965625 -5.88738428 10.19071697 -5.125 8.9375 C-4.37745994 7.67586669 -3.630058 6.41415154 -2.8828125 5.15234375 C-2.26148438 4.11207031 -1.64015625 3.07179688 -1 2 C-0.67 1.34 -0.34 0.68 0 0 Z " fill="#C2E5CA" transform="translate(861,471)"/>
<path d="M0 0 C0.66 0 1.32 0 2 0 C1.67 0.99 1.34 1.98 1 3 C0.34 3 -0.32 3 -1 3 C-1.26039063 3.58652344 -1.52078125 4.17304688 -1.7890625 4.77734375 C-4.49467807 9.7434575 -9.36051224 13.84514833 -14 17 C-14.66 16.67 -15.32 16.34 -16 16 C-15.09636719 15.18015625 -14.19273437 14.3603125 -13.26171875 13.515625 C-12.07014912 12.42726218 -10.87875191 11.33871057 -9.6875 10.25 C-8.79514648 9.44175781 -8.79514648 9.44175781 -7.88476562 8.6171875 C-5.43414893 6.37192974 -3.20658183 4.27544244 -1.20703125 1.609375 C-0.80871094 1.07828125 -0.41039062 0.5471875 0 0 Z " fill="#D1F3D6" transform="translate(617,504)"/>
<path d="M0 0 C-1.16757737 3.32310483 -2.14948857 5.83361132 -5 8 C-5.99 8 -6.98 8 -8 8 C-7.63487253 5.2980567 -7.30130763 3.41609148 -5.6875 1.1875 C-4 0 -4 0 0 0 Z " fill="#85ACE2" transform="translate(599,481)"/>
<path d="M0 0 C0.66 0.33 1.32 0.66 2 1 C1.01 3.31 0.02 5.62 -1 8 C-1.66 8 -2.32 8 -3 8 C-3.2475 8.9075 -3.495 9.815 -3.75 10.75 C-5.03981342 14.10351489 -6.31971042 15.67708236 -9 18 C-8.30058404 14.85262818 -7.23921302 11.97411124 -6 9 C-5.34 9 -4.68 9 -4 9 C-3.71125 8.071875 -3.4225 7.14375 -3.125 6.1875 C-2 3 -2 3 0 0 Z " fill="#477DCF" transform="translate(630,424)"/>
<path d="M0 0 C1 2 1 2 0.3125 4.6875 C-3.35789474 13.95087719 -3.35789474 13.95087719 -7.25 16.4375 C-7.8275 16.623125 -8.405 16.80875 -9 17 C-7 13 -5 9 -3 5 C-2.34 5 -1.68 5 -1 5 C-0.67 3.35 -0.34 1.7 0 0 Z " fill="#98B7E9" transform="translate(630,427)"/>
<path d="M0 0 C0.33 0 0.66 0 1 0 C1.46233492 3.9760803 1.30954571 5.56851204 -1.0625 8.875 C-4.65037512 11.47048413 -6.6677071 11.4247346 -11 11 C-9 9 -9 9 -5.5 7.1875 C-2.739417 5.66659669 -2.08598404 5.16449122 -0.5625 2.25 C-0.376875 1.5075 -0.19125 0.765 0 0 Z " fill="#578AD3" transform="translate(536,308)"/>
<path d="M0 0 C1.24546405 2.49092811 0.7767578 3.41080733 0 6 C-0.66 6 -1.32 6 -2 6 C-2 6.66 -2 7.32 -2 8 C-3.75 9.5078125 -3.75 9.5078125 -6 11.125 C-6.7425 11.66382813 -7.485 12.20265625 -8.25 12.7578125 C-8.8275 13.16773438 -9.405 13.57765625 -10 14 C-10 12.68 -10 11.36 -10 10 C-9.01 10 -8.02 10 -7 10 C-6.67 9.01 -6.34 8.02 -6 7 C-5.01 6.34 -4.02 5.68 -3 5 C-2.63837971 3.67405895 -2.30271961 2.34061543 -2 1 C-1.34 0.67 -0.68 0.34 0 0 Z " fill="#6CB678" transform="translate(718,611)"/>
<path d="M0 0 C0.33 1.32 0.66 2.64 1 4 C-0.74420913 5.32018588 -2.49560091 6.63088602 -4.25 7.9375 C-5.22453125 8.66839844 -6.1990625 9.39929688 -7.203125 10.15234375 C-9.6267881 11.75345079 -11.1757492 12.57636238 -14 13 C-14 12.34 -14 11.68 -14 11 C-11.8828125 9.4921875 -11.8828125 9.4921875 -9.125 7.875 C-8.22007812 7.33617187 -7.31515625 6.79734375 -6.3828125 6.2421875 C-4 5 -4 5 -2 5 C-2 4.34 -2 3.68 -2 3 C-1.34 3 -0.68 3 0 3 C0 2.01 0 1.02 0 0 Z " fill="#ACD0F3" transform="translate(721,330)"/>
<path d="M0 0 C1.47423176 2.94846352 0.50199338 4.99933544 -0.328125 8.08984375 C-1.12844227 10.36516436 -1.98304444 11.65536296 -4 13 C-4.66 13 -5.32 13 -6 13 C-2.86206897 2.86206897 -2.86206897 2.86206897 0 0 Z " fill="#71B97D" transform="translate(648,460)"/>
<path d="M0 0 C1 2 1 2 0.25 4.5625 C-1 7 -1 7 -4 8 C-4.33 8.99 -4.66 9.98 -5 11 C-5.99 11.33 -6.98 11.66 -8 12 C-6.49087042 7.01987239 -3.44338151 3.75740058 0 0 Z " fill="#6DB579" transform="translate(634,485)"/>
<path d="M0 0 C0.66 0.33 1.32 0.66 2 1 C0.7934375 1.8971875 0.7934375 1.8971875 -0.4375 2.8125 C-3.22327984 4.80947276 -3.22327984 4.80947276 -4 8 C-5.8125 9.25 -5.8125 9.25 -8 10 C-9.32 9.67 -10.64 9.34 -12 9 C-8.04 6.03 -4.08 3.06 0 0 Z " fill="#C1E6C5" transform="translate(745,339)"/>
<path d="M0 0 C0.66 0.33 1.32 0.66 2 1 C0.96415463 4.10753611 0.49605741 5.02036826 -2 7 C-3.97746603 7.73080266 -5.98072489 8.39421747 -8 9 C-9.67163195 9.65411685 -11.34015202 10.31653318 -13 11 C-13 10.34 -13 9.68 -13 9 C-11.96939453 8.52820313 -11.96939453 8.52820313 -10.91796875 8.046875 C-10.01691406 7.61890625 -9.11585938 7.1909375 -8.1875 6.75 C-7.29417969 6.33234375 -6.40085937 5.9146875 -5.48046875 5.484375 C-2.89071669 3.93460211 -1.61819166 2.51599234 0 0 Z " fill="#71B87C" transform="translate(597,524)"/>
<path d="M0 0 C3.13220429 2.5627126 4.04560617 5.10900977 5 9 C5.15041492 11.69291219 5.09314515 14.29879075 5 17 C4.67 17 4.34 17 4 17 C4 15.02 4 13.04 4 11 C3.34 11 2.68 11 2 11 C0.80712589 7.12315913 0 4.08378077 0 0 Z " fill="#BEE8C7" transform="translate(857,331)"/>
<path d="M0 0 C0.66 0.33 1.32 0.66 2 1 C0.6062718 5.43458973 -1.60582235 7.87378374 -5 11 C-5.66 10.67 -6.32 10.34 -7 10 C-4.75421558 6.59260295 -2.48862878 3.23521742 0 0 Z " fill="#61B470" transform="translate(710,370)"/>
<path d="M0 0 C0 0.66 0 1.32 0 2 C-1.65848177 3.01351664 -3.32665961 4.01120795 -5 5 C-5.680625 5.7425 -6.36125 6.485 -7.0625 7.25 C-8.0215625 8.11625 -8.0215625 8.11625 -9 9 C-11.12109375 8.609375 -11.12109375 8.609375 -13 8 C-11.2126038 6.66094733 -9.41995047 5.32890934 -7.625 4 C-6.62726562 3.2575 -5.62953125 2.515 -4.6015625 1.75 C-2 0 -2 0 0 0 Z " fill="#C6EAC9" transform="translate(601,521)"/>
<path d="M0 0 C0.99 0.33 1.98 0.66 3 1 C1.61133677 1.9893091 0.21370149 2.96603078 -1.1875 3.9375 C-1.96480469 4.48277344 -2.74210938 5.02804687 -3.54296875 5.58984375 C-6.07950299 7.0456289 -8.1218182 7.59613435 -11 8 C-7.47072234 5.09353605 -3.94769379 2.31712462 0 0 Z " fill="#B0D0EF" transform="translate(570,509)"/>
<path d="M0 0 C3.62276315 1.3255581 6.63505348 2.94346955 9.8125 5.125 C10.60269531 5.66382813 11.39289063 6.20265625 12.20703125 6.7578125 C12.79871094 7.16773438 13.39039063 7.57765625 14 8 C13.01 8.33 12.02 8.66 11 9 C8.30078125 7.63671875 8.30078125 7.63671875 5.3125 5.6875 C4.31863281 5.05199219 3.32476562 4.41648437 2.30078125 3.76171875 C1.16189453 2.88966797 1.16189453 2.88966797 0 2 C0 1.34 0 0.68 0 0 Z " fill="#BDDDF4" transform="translate(402,488)"/>
<path d="M0 0 C2.94483646 1.47241823 3.27708447 3.82641311 4.3359375 6.7890625 C5.2577414 9.85812725 5.66827712 12.81546031 6 16 C2.58718628 13.35196246 2.16804451 10.42726168 1.3125 6.3125 C1.06113281 5.13300781 0.80976563 3.95351563 0.55078125 2.73828125 C0.36902344 1.83464844 0.18726563 0.93101562 0 0 Z " fill="#83ADE1" transform="translate(393,469)"/>
<path d="M0 0 C1.46373047 0.02707031 1.46373047 0.02707031 2.95703125 0.0546875 C3.69308594 0.07789063 4.42914062 0.10109375 5.1875 0.125 C5.1875 0.455 5.1875 0.785 5.1875 1.125 C4.56101562 1.17398438 3.93453125 1.22296875 3.2890625 1.2734375 C2.47179687 1.34820312 1.65453125 1.42296875 0.8125 1.5 C0.00039063 1.56960937 -0.81171875 1.63921875 -1.6484375 1.7109375 C-4.01584191 1.95392588 -4.01584191 1.95392588 -5.8125 4.125 C-8.9375 4.25 -8.9375 4.25 -11.8125 4.125 C-10.8125 2.125 -10.8125 2.125 -8.61328125 1.0078125 C-5.57167697 0.04909205 -3.17866882 -0.07659443 0 0 Z " fill="#6290D6" transform="translate(563.8125,171.875)"/>
<path d="M0 0 C0.33 0 0.66 0 1 0 C1.25532751 3.06393013 1.21861333 4.63233212 -0.375 7.3125 C-1.179375 8.1478125 -1.179375 8.1478125 -2 9 C-2.66 9 -3.32 9 -4 9 C-4.66 10.32 -5.32 11.64 -6 13 C-6 9.34899606 -4.9552415 7.89878202 -3.0625 4.8125 C-2.51722656 3.91144531 -1.97195313 3.01039063 -1.41015625 2.08203125 C-0.71212891 1.05142578 -0.71212891 1.05142578 0 0 Z " fill="#C9ECD0" transform="translate(634,480)"/>
<path d="M0 0 C0.75 1.75 0.75 1.75 1 4 C-0.8125 6 -0.8125 6 -3 8 C-4.23512079 10.13309192 -4.23512079 10.13309192 -5 12 C-5.33 11.34 -5.66 10.68 -6 10 C-4.56477275 6.05312508 -3.32169911 2.68899452 0 0 Z " fill="#ACE1BA" transform="translate(682,402)"/>
<path d="M0 0 C5.32697239 1.45281065 8.36402802 5.08111378 12 9 C11.67 9.66 11.34 10.32 11 11 C9 9.625 9 9.625 7 8 C7 7.34 7 6.68 7 6 C6.401875 5.7525 5.80375 5.505 5.1875 5.25 C2.71352479 3.83629988 1.56629745 2.34944617 0 0 Z " fill="#C8ECCD" transform="translate(845,320)"/>
<path d="M0 0 C0.33 0.66 0.66 1.32 1 2 C1.66 2.33 2.32 2.66 3 3 C-1.39453125 7.00390625 -1.39453125 7.00390625 -3 8 C-3.99 7.67 -4.98 7.34 -6 7 C-4.02 4.69 -2.04 2.38 0 0 Z " fill="#5CB26C" transform="translate(720,361)"/>
<path d="M0 0 C4.3124594 1.59720719 6.42143673 4.31633819 9 8 C8.8125 10.375 8.8125 10.375 8 12 C8 11.01 8 10.02 8 9 C7.34 9 6.68 9 6 9 C4.64721885 7.01310269 3.31431695 5.01254782 2 3 C1.34 2.67 0.68 2.34 0 2 C0 1.34 0 0.68 0 0 Z " fill="#C3D8F2" transform="translate(709,176)"/>
<path d="M0 0 C1 3 1 3 -0.109375 5.2265625 C-0.92148437 6.41378906 -0.92148437 6.41378906 -1.75 7.625 C-2.54664063 8.81996094 -2.54664063 8.81996094 -3.359375 10.0390625 C-5 12 -5 12 -8 13 C-6.40956621 7.91061189 -3.2553049 4.12543357 0 0 Z " fill="#D1EFD6" transform="translate(691,389)"/>
<path d="M0 0 C3.38376598 2.37759524 4.9063557 3.92368942 6 8 C5.625 10.3125 5.625 10.3125 5 12 C3 11 3 11 2.1484375 8.49609375 C1.89320313 7.48675781 1.63796875 6.47742188 1.375 5.4375 C1.11460937 4.42558594 0.85421875 3.41367187 0.5859375 2.37109375 C0.39257812 1.58863281 0.19921875 0.80617188 0 0 Z " fill="#75B980" transform="translate(853,328)"/>
<path d="M0 0 C0.33 0.99 0.66 1.98 1 3 C0.67 3.66 0.34 4.32 0 5 C0.66 5 1.32 5 2 5 C2 5.66 2 6.32 2 7 C-1.25543229 6.65120368 -2.01873107 5.97866739 -4.25 3.4375 C-5.11625 2.2309375 -5.11625 2.2309375 -6 1 C-4.7934375 1.0309375 -4.7934375 1.0309375 -3.5625 1.0625 C-1.06645115 1.29633621 -1.06645115 1.29633621 0 0 Z " fill="#66B46F" transform="translate(552,620)"/>
<path d="M0 0 C2.64 0 5.28 0 8 0 C5.48300155 2.51699845 3.42445854 3.10964078 0 4 C-2.375 3.625 -2.375 3.625 -4 3 C-2.68 2.67 -1.36 2.34 0 2 C0 1.34 0 0.68 0 0 Z " fill="#6895DA" transform="translate(546,518)"/>
<path d="M0 0 C0.33 1.32 0.66 2.64 1 4 C-1.97 6.475 -1.97 6.475 -5 9 C-3.90931332 5.22454612 -3.0916909 2.52956528 0 0 Z " fill="#60B46F" transform="translate(614,510)"/>
<path d="M0 0 C0 3 0 3 -1.8125 5.1875 C-4 7 -4 7 -7 7 C-7 6.34 -7 5.68 -7 5 C-6.34 4.67 -5.68 4.34 -5 4 C-4.67 3.01 -4.34 2.02 -4 1 C-1.9375 0.3125 -1.9375 0.3125 0 0 Z " fill="#62B470" transform="translate(737,348)"/>
<path d="M0 0 C-3.74525799 3.74525799 -7.98270909 3.68909949 -13 4 C-12 2 -12 2 -9.78515625 1.11328125 C-8.88667969 0.84902344 -7.98820313 0.58476562 -7.0625 0.3125 C-6.16660156 0.04050781 -5.27070312 -0.23148437 -4.34765625 -0.51171875 C-2 -1 -2 -1 0 0 Z " fill="#78BC81" transform="translate(789,322)"/>
<path d="M0 0 C1.32 0.33 2.64 0.66 4 1 C3.67 1.99 3.34 2.98 3 4 C2.01 3.67 1.02 3.34 0 3 C-0.66 4.65 -1.32 6.3 -2 8 C-2.33 6.68 -2.66 5.36 -3 4 C-2.34 4 -1.68 4 -1 4 C-0.67 2.68 -0.34 1.36 0 0 Z " fill="#638CDA" transform="translate(660,382)"/>
<path d="M0 0 C0 0.66 0 1.32 0 2 C-0.99 2.33 -1.98 2.66 -3 3 C-4.68538601 4.99665314 -4.68538601 4.99665314 -6 7 C-7.32 6.67 -8.64 6.34 -10 6 C-8.71283353 4.99421411 -7.42011342 3.99553202 -6.125 3 C-5.40570312 2.443125 -4.68640625 1.88625 -3.9453125 1.3125 C-2 0 -2 0 0 0 Z " fill="#81C08B" transform="translate(751,338)"/>
<path d="M0 0 C2.0625 0.4375 2.0625 0.4375 4 1 C1.60490662 3.89932357 -0.31245243 4.50168276 -4 5 C-4 5.66 -4 6.32 -4 7 C-4.66 6.67 -5.32 6.34 -6 6 C-4 4 -2 2 0 0 Z " fill="#6190D4" transform="translate(407,323)"/>
<path d="M0 0 C0.66 0.99 1.32 1.98 2 3 C-1.88309282 6.64775386 -4.71201818 7.58525633 -10 8 C-8 6 -8 6 -5.5625 5.125 C-2.67869156 3.85893776 -1.6613321 2.62315594 0 0 Z " fill="#AFE3F9" transform="translate(533,310)"/>
<path d="M0 0 C1.9375 0.625 1.9375 0.625 4 2 C4.75 5.125 4.75 5.125 5 8 C2.21611025 6.29374499 1.14615794 5.52373261 0.25 2.3125 C0.1675 1.549375 0.085 0.78625 0 0 Z " fill="#69B375" transform="translate(541,613)"/>
<path d="M0 0 C0.66 0.33 1.32 0.66 2 1 C-1.96 4.465 -1.96 4.465 -6 8 C-6.33 7.01 -6.66 6.02 -7 5 C-6.34 5 -5.68 5 -5 5 C-4.731875 4.360625 -4.46375 3.72125 -4.1875 3.0625 C-3 1 -3 1 0 0 Z " fill="#5D8ACF" transform="translate(585,495)"/>
<path d="M0 0 C0.66 0 1.32 0 2 0 C0.44499019 3.81684226 -2.03595495 6.19195732 -5 9 C-3.7580393 5.56072421 -2.44259716 2.74792181 0 0 Z " fill="#C9E2F7" transform="translate(591,489)"/>
<path d="M0 0 C0.99 0.33 1.98 0.66 3 1 C2.0479279 2.00596297 1.08812654 3.00461563 0.125 4 C-0.40867187 4.556875 -0.94234375 5.11375 -1.4921875 5.6875 C-3 7 -3 7 -5 7 C-3.70700306 4.11562221 -2.34058637 2.12780579 0 0 Z " fill="#B3D2F1" transform="translate(668,376)"/>
<path d="M0 0 C-1.49097658 3.7952131 -3.75700849 5.61042731 -7 8 C-6.44414399 4.1090079 -4.34122117 0 0 0 Z " fill="#457DC7" transform="translate(669,374)"/>
<path d="M0 0 C2.64 1.98 5.28 3.96 8 6 C6.68 6.33 5.36 6.66 4 7 C0 2.25 0 2.25 0 0 Z " fill="#C7E7CA" transform="translate(542,618)"/>
<path d="M0 0 C0.33 0 0.66 0 1 0 C1 1.65 1 3.3 1 5 C1.99 5.33 2.98 5.66 4 6 C4 7.98 4 9.96 4 12 C1.95780294 10.30820672 1.08206694 9.36272334 0.48828125 6.73828125 C0.43027344 5.93777344 0.37226562 5.13726563 0.3125 4.3125 C0.24675781 3.50425781 0.18101562 2.69601562 0.11328125 1.86328125 C0.07589844 1.24839844 0.03851562 0.63351562 0 0 Z " fill="#83C08C" transform="translate(538,604)"/>
<path d="M0 0 C0.66 0 1.32 0 2 0 C0.66666667 2.66666667 -0.66666667 5.33333333 -2 8 C-2.66 8 -3.32 8 -4 8 C-4 6.68 -4 5.36 -4 4 C-3.34 4 -2.68 4 -2 4 C-1.34 2.68 -0.68 1.36 0 0 Z " fill="#5082CF" transform="translate(601,473)"/>
<path d="M0 0 C0.66 0 1.32 0 2 0 C1.3125 2.875 1.3125 2.875 0 6 C-2.625 7.375 -2.625 7.375 -5 8 C-4.67 7.01 -4.34 6.02 -4 5 C-3.34 5 -2.68 5 -2 5 C-1.34 3.35 -0.68 1.7 0 0 Z " fill="#73B881" transform="translate(688,396)"/>
<path d="M0 0 C0.8971875 0.309375 0.8971875 0.309375 1.8125 0.625 C-1.39086822 3.45874881 -3.96837253 4.1455537 -8.1875 4.625 C-3.2421875 -0.55580357 -3.2421875 -0.55580357 0 0 Z " fill="#C4E8CC" transform="translate(755.1875,334.375)"/>
<path d="M0 0 C0.66 1.32 1.32 2.64 2 4 C0.71937515 5.7074998 -0.61767557 7.37373596 -2 9 C-2.66 9 -3.32 9 -4 9 C-2.80100302 5.9168649 -1.52299523 2.93720508 0 0 Z " fill="#9CB3F1" transform="translate(609,462)"/>
<path d="M0 0 C0.33 0.99 0.66 1.98 1 3 C-0.25 5.1875 -0.25 5.1875 -2 7 C-2.99 7 -3.98 7 -5 7 C-3.70700306 4.11562221 -2.34058637 2.12780579 0 0 Z " fill="#93C1EA" transform="translate(674,369)"/>
<path d="M0 0 C0 0.66 0 1.32 0 2 C-3.96 3.98 -3.96 3.98 -8 6 C-8 5.01 -8 4.02 -8 3 C-7.01 3 -6.02 3 -5 3 C-5 2.34 -5 1.68 -5 1 C-3 0 -3 0 0 0 Z " fill="#5686D1" transform="translate(719,333)"/>
<path d="M0 0 C0.99 0 1.98 0 3 0 C2.1875 2.4375 2.1875 2.4375 1 5 C0.01 5.33 -0.98 5.66 -2 6 C-1.125 1.125 -1.125 1.125 0 0 Z " fill="#4C83D0" transform="translate(400,330)"/>
<path d="M0 0 C0.99 0.33 1.98 0.66 3 1 C3 1.99 3 2.98 3 4 C3.99 4.33 4.98 4.66 6 5 C3.50907189 6.24546405 2.58919267 5.7767578 0 5 C0 3.35 0 1.7 0 0 Z " fill="#84A8DE" transform="translate(706,174)"/>
<path d="M0 0 C2.64 0.33 5.28 0.66 8 1 C8 1.66 8 2.32 8 3 C5.03 2.67 2.06 2.34 -1 2 C-0.67 1.34 -0.34 0.68 0 0 Z " fill="#5D8DD0" transform="translate(698,173)"/>
<path d="M0 0 C6.4 -0.36923077 6.4 -0.36923077 9.4375 1.5 C9.953125 1.995 10.46875 2.49 11 3 C9.741875 2.87625 8.48375 2.7525 7.1875 2.625 C6.12595703 2.52058594 6.12595703 2.52058594 5.04296875 2.4140625 C3 2 3 2 0 0 Z " fill="#C1DBF4" transform="translate(695,171)"/>
<path d="M0 0 C0.763125 0.309375 1.52625 0.61875 2.3125 0.9375 C4.18789677 1.67893593 6.08684652 2.36228217 8 3 C8 3.66 8 4.32 8 5 C4.5625 4.1875 4.5625 4.1875 1 3 C0.67 2.01 0.34 1.02 0 0 Z " fill="#4B84D5" transform="translate(409,490)"/>
<path d="M0 0 C0.66 0 1.32 0 2 0 C1.34 1.98 0.68 3.96 0 6 C-0.66 6 -1.32 6 -2 6 C-2.33 6.99 -2.66 7.98 -3 9 C-3 7.35 -3 5.7 -3 4 C-2.34 4 -1.68 4 -1 4 C-0.67 2.68 -0.34 1.36 0 0 Z " fill="#4E85D0" transform="translate(611,456)"/>
<path d="M0 0 C0.6875 1.6875 0.6875 1.6875 1 4 C-0.3125 6.75 -0.3125 6.75 -2 9 C-2.66 9 -3.32 9 -4 9 C-3.34 6.69 -2.68 4.38 -2 2 C-1.34 2 -0.68 2 0 2 C0 1.34 0 0.68 0 0 Z " fill="#69B576" transform="translate(662,436)"/>
<path d="M0 0 C0.33 0.99 0.66 1.98 1 3 C0.01 3.33 -0.98 3.66 -2 4 C-2.33 4.99 -2.66 5.98 -3 7 C-3.66 6.67 -4.32 6.34 -5 6 C-2.25 1.125 -2.25 1.125 0 0 Z " fill="#B2E1B8" transform="translate(732,349)"/>
<path d="M0 0 C-2.55068845 2.35448165 -3.71017358 2.98327924 -7.25 3.1875 C-8.1575 3.125625 -9.065 3.06375 -10 3 C-9 1 -9 1 -7.25 0.375 C-4.79549443 -0.03408426 -2.4840589 -0.06900164 0 0 Z " fill="#4683D2" transform="translate(421,320)"/>
</svg>
